<svg xmlns="http://www.w3.org/2000/svg" xmlns:xlink="http://www.w3.org/1999/xlink" width="100" zoomAndPan="magnify" viewBox="0 0 75 37.5" height="50" preserveAspectRatio="xMidYMid meet" version="1.0"><defs><clipPath id="78f0fe66fd"><path d="M 11.4375 10.976562 L 63.246094 10.976562 L 63.246094 25.78125 L 11.4375 25.78125 Z M 11.4375 10.976562 " clip-rule="nonzero"/></clipPath></defs><g clip-path="url(#78f0fe66fd)"><path fill="#222222" d="M 11.859375 22.519531 L 11.859375 16.832031 L 19.035156 16.832031 L 19.035156 16.5 L 11.859375 16.5 L 11.859375 11.308594 L 19.488281 11.308594 L 19.488281 10.976562 L 11.523438 10.976562 L 11.523438 22.851562 L 19.554688 22.851562 L 19.554688 22.519531 Z M 26.027344 14.304688 L 23.050781 18.179688 L 20.144531 14.304688 L 19.707031 14.304688 L 22.851562 18.429688 L 19.40625 22.851562 L 19.808594 22.851562 L 23.050781 18.675781 L 26.3125 22.851562 L 26.730469 22.851562 L 23.269531 18.429688 L 26.429688 14.304688 Z M 27.738281 25.78125 L 27.738281 20.457031 L 27.773438 20.457031 C 27.972656 21.234375 28.371094 21.855469 28.964844 22.328125 C 29.558594 22.800781 30.316406 23.035156 31.234375 23.035156 C 31.828125 23.035156 32.355469 22.914062 32.8125 22.675781 C 33.273438 22.4375 33.65625 22.113281 33.964844 21.703125 C 34.273438 21.292969 34.507812 20.816406 34.671875 20.273438 C 34.832031 19.730469 34.914062 19.160156 34.914062 18.5625 C 34.914062 17.917969 34.828125 17.324219 34.660156 16.78125 C 34.492188 16.238281 34.25 15.765625 33.929688 15.367188 C 33.609375 14.96875 33.226562 14.660156 32.769531 14.4375 C 32.316406 14.214844 31.804688 14.105469 31.234375 14.105469 C 30.796875 14.105469 30.390625 14.167969 30.015625 14.296875 C 29.640625 14.421875 29.308594 14.601562 29.015625 14.835938 C 28.726562 15.070312 28.472656 15.34375 28.261719 15.660156 C 28.046875 15.976562 27.882812 16.320312 27.773438 16.699219 L 27.738281 16.699219 L 27.738281 14.304688 L 27.402344 14.304688 L 27.402344 25.78125 Z M 31.234375 22.71875 C 30.179688 22.71875 29.335938 22.363281 28.695312 21.644531 C 28.058594 20.929688 27.738281 19.902344 27.738281 18.5625 C 27.738281 18.007812 27.816406 17.480469 27.972656 16.980469 C 28.132812 16.484375 28.359375 16.042969 28.65625 15.667969 C 28.953125 15.289062 29.316406 14.992188 29.753906 14.769531 C 30.191406 14.546875 30.683594 14.4375 31.234375 14.4375 C 31.792969 14.4375 32.285156 14.546875 32.703125 14.769531 C 33.125 14.992188 33.472656 15.292969 33.746094 15.675781 C 34.019531 16.058594 34.226562 16.496094 34.367188 16.988281 C 34.507812 17.484375 34.578125 18.007812 34.578125 18.5625 C 34.578125 19.058594 34.511719 19.554688 34.382812 20.050781 C 34.253906 20.542969 34.058594 20.984375 33.789062 21.378906 C 33.519531 21.773438 33.175781 22.09375 32.753906 22.34375 C 32.335938 22.59375 31.828125 22.71875 31.234375 22.71875 Z M 36.761719 22.851562 L 36.761719 18.011719 C 36.761719 17.546875 36.828125 17.09375 36.964844 16.648438 C 37.097656 16.207031 37.304688 15.8125 37.585938 15.476562 C 37.863281 15.136719 38.222656 14.871094 38.652344 14.679688 C 39.082031 14.484375 39.59375 14.402344 40.1875 14.4375 L 40.1875 14.105469 C 39.675781 14.09375 39.222656 14.148438 38.835938 14.269531 C 38.449219 14.390625 38.117188 14.558594 37.835938 14.769531 C 37.558594 14.980469 37.332031 15.226562 37.164062 15.507812 C 36.996094 15.792969 36.875 16.09375 36.796875 16.414062 L 36.761719 16.414062 L 36.761719 14.304688 L 36.425781 14.304688 L 36.425781 22.851562 Z M 40.609375 18.644531 L 47.835938 18.644531 C 47.855469 18.058594 47.796875 17.492188 47.65625 16.949219 C 47.519531 16.40625 47.292969 15.921875 46.988281 15.5 C 46.679688 15.078125 46.28125 14.742188 45.792969 14.488281 C 45.304688 14.230469 44.726562 14.105469 44.054688 14.105469 C 43.574219 14.105469 43.101562 14.203125 42.644531 14.402344 C 42.183594 14.601562 41.78125 14.894531 41.433594 15.277344 C 41.085938 15.660156 40.804688 16.128906 40.59375 16.683594 C 40.378906 17.238281 40.273438 17.867188 40.273438 18.578125 C 40.273438 19.210938 40.347656 19.800781 40.492188 20.347656 C 40.636719 20.898438 40.863281 21.375 41.164062 21.777344 C 41.464844 22.183594 41.855469 22.496094 42.332031 22.71875 C 42.808594 22.941406 43.382812 23.046875 44.054688 23.035156 C 45.039062 23.035156 45.867188 22.761719 46.539062 22.210938 C 47.210938 21.664062 47.609375 20.890625 47.734375 19.890625 L 47.398438 19.890625 C 47.25 20.835938 46.878906 21.542969 46.28125 22.011719 C 45.679688 22.484375 44.929688 22.71875 44.019531 22.71875 C 43.40625 22.71875 42.882812 22.613281 42.457031 22.402344 C 42.03125 22.191406 41.683594 21.902344 41.414062 21.539062 C 41.148438 21.171875 40.949219 20.742188 40.820312 20.25 C 40.691406 19.757812 40.621094 19.222656 40.609375 18.644531 Z M 47.5 18.3125 L 40.609375 18.3125 C 40.644531 17.714844 40.753906 17.175781 40.945312 16.699219 C 41.136719 16.222656 41.386719 15.8125 41.691406 15.476562 C 42 15.136719 42.359375 14.878906 42.769531 14.703125 C 43.175781 14.527344 43.617188 14.4375 44.085938 14.4375 C 44.648438 14.4375 45.140625 14.539062 45.566406 14.746094 C 45.992188 14.949219 46.347656 15.230469 46.632812 15.585938 C 46.917969 15.9375 47.132812 16.351562 47.28125 16.824219 C 47.425781 17.292969 47.5 17.789062 47.5 18.3125 Z M 54.808594 16.832031 L 55.144531 16.832031 C 55.144531 15.878906 54.863281 15.183594 54.304688 14.753906 C 53.742188 14.320312 52.980469 14.105469 52.019531 14.105469 C 51.480469 14.105469 51.027344 14.171875 50.65625 14.304688 C 50.285156 14.4375 49.984375 14.609375 49.75 14.820312 C 49.515625 15.03125 49.347656 15.261719 49.246094 15.519531 C 49.144531 15.773438 49.09375 16.015625 49.09375 16.25 C 49.09375 16.714844 49.179688 17.085938 49.347656 17.363281 C 49.515625 17.640625 49.777344 17.855469 50.136719 18.011719 C 50.382812 18.125 50.664062 18.222656 50.976562 18.3125 C 51.289062 18.402344 51.65625 18.496094 52.070312 18.59375 C 52.4375 18.683594 52.800781 18.773438 53.160156 18.859375 C 53.519531 18.949219 53.835938 19.070312 54.109375 19.21875 C 54.382812 19.367188 54.609375 19.558594 54.78125 19.792969 C 54.957031 20.023438 55.042969 20.328125 55.042969 20.707031 C 55.042969 21.070312 54.957031 21.382812 54.78125 21.636719 C 54.609375 21.890625 54.386719 22.101562 54.117188 22.261719 C 53.851562 22.421875 53.550781 22.539062 53.21875 22.609375 C 52.890625 22.683594 52.566406 22.71875 52.253906 22.71875 C 51.234375 22.71875 50.453125 22.496094 49.910156 22.046875 C 49.367188 21.597656 49.09375 20.890625 49.09375 19.925781 L 48.757812 19.925781 C 48.757812 21 49.050781 21.789062 49.640625 22.285156 C 50.230469 22.785156 51.101562 23.035156 52.253906 23.035156 C 52.621094 23.035156 52.996094 22.992188 53.371094 22.910156 C 53.746094 22.828125 54.082031 22.691406 54.378906 22.503906 C 54.675781 22.3125 54.917969 22.070312 55.101562 21.769531 C 55.285156 21.472656 55.378906 21.105469 55.378906 20.671875 C 55.378906 20.261719 55.296875 19.929688 55.132812 19.675781 C 54.972656 19.421875 54.757812 19.210938 54.496094 19.042969 C 54.234375 18.878906 53.9375 18.746094 53.605469 18.652344 C 53.273438 18.558594 52.941406 18.46875 52.605469 18.378906 C 52.136719 18.257812 51.722656 18.152344 51.371094 18.0625 C 51.019531 17.972656 50.691406 17.867188 50.386719 17.746094 C 50.097656 17.625 49.863281 17.449219 49.691406 17.222656 C 49.519531 16.996094 49.429688 16.671875 49.429688 16.25 C 49.429688 16.171875 49.453125 16.035156 49.496094 15.832031 C 49.542969 15.632812 49.648438 15.433594 49.816406 15.226562 C 49.984375 15.023438 50.242188 14.839844 50.589844 14.679688 C 50.9375 14.515625 51.414062 14.4375 52.019531 14.4375 C 52.433594 14.4375 52.808594 14.480469 53.152344 14.570312 C 53.492188 14.660156 53.789062 14.800781 54.035156 14.992188 C 54.28125 15.1875 54.472656 15.433594 54.605469 15.734375 C 54.742188 16.035156 54.808594 16.398438 54.808594 16.832031 Z M 62.585938 16.832031 L 62.921875 16.832031 C 62.921875 15.878906 62.644531 15.183594 62.082031 14.753906 C 61.523438 14.320312 60.761719 14.105469 59.796875 14.105469 C 59.261719 14.105469 58.804688 14.171875 58.4375 14.304688 C 58.066406 14.4375 57.765625 14.609375 57.527344 14.820312 C 57.292969 15.03125 57.125 15.261719 57.027344 15.519531 C 56.925781 15.773438 56.875 16.015625 56.875 16.25 C 56.875 16.714844 56.957031 17.085938 57.125 17.363281 C 57.292969 17.640625 57.558594 17.855469 57.914062 18.011719 C 58.160156 18.125 58.441406 18.222656 58.757812 18.3125 C 59.070312 18.402344 59.433594 18.496094 59.847656 18.59375 C 60.21875 18.683594 60.582031 18.773438 60.941406 18.859375 C 61.296875 18.949219 61.613281 19.070312 61.890625 19.21875 C 62.164062 19.367188 62.386719 19.558594 62.5625 19.792969 C 62.734375 20.023438 62.820312 20.328125 62.820312 20.707031 C 62.820312 21.070312 62.734375 21.382812 62.5625 21.636719 C 62.386719 21.890625 62.167969 22.101562 61.898438 22.261719 C 61.628906 22.421875 61.328125 22.539062 61 22.609375 C 60.667969 22.683594 60.347656 22.71875 60.03125 22.71875 C 59.011719 22.71875 58.230469 22.496094 57.6875 22.046875 C 57.144531 21.597656 56.875 20.890625 56.875 19.925781 L 56.539062 19.925781 C 56.539062 21 56.832031 21.789062 57.417969 22.285156 C 58.007812 22.785156 58.878906 23.035156 60.03125 23.035156 C 60.402344 23.035156 60.773438 22.992188 61.148438 22.910156 C 61.523438 22.828125 61.859375 22.691406 62.160156 22.503906 C 62.453125 22.3125 62.695312 22.070312 62.878906 21.769531 C 63.066406 21.472656 63.15625 21.105469 63.15625 20.671875 C 63.15625 20.261719 63.078125 19.929688 62.914062 19.675781 C 62.75 19.421875 62.539062 19.210938 62.277344 19.042969 C 62.011719 18.878906 61.714844 18.746094 61.386719 18.652344 C 61.054688 18.558594 60.722656 18.46875 60.386719 18.378906 C 59.914062 18.257812 59.503906 18.152344 59.148438 18.0625 C 58.796875 17.972656 58.46875 17.867188 58.167969 17.746094 C 57.875 17.625 57.644531 17.449219 57.46875 17.222656 C 57.296875 16.996094 57.210938 16.671875 57.210938 16.25 C 57.210938 16.171875 57.230469 16.035156 57.277344 15.832031 C 57.320312 15.632812 57.429688 15.433594 57.597656 15.226562 C 57.765625 15.023438 58.023438 14.839844 58.371094 14.679688 C 58.714844 14.515625 59.191406 14.4375 59.796875 14.4375 C 60.210938 14.4375 60.589844 14.480469 60.929688 14.570312 C 61.273438 14.660156 61.566406 14.800781 61.8125 14.992188 C 62.058594 15.1875 62.25 15.433594 62.386719 15.734375 C 62.519531 16.035156 62.585938 16.398438 62.585938 16.832031 Z M 62.585938 16.832031 " fill-opacity="1" fill-rule="nonzero"/></g></svg>