<svg xmlns="http://www.w3.org/2000/svg" xmlns:xlink="http://www.w3.org/1999/xlink" width="100" zoomAndPan="magnify" viewBox="0 0 75 37.5" height="50" preserveAspectRatio="xMidYMid meet" version="1.0"><defs><g/><clipPath id="3835cb745d"><path d="M 22.507812 12.507812 L 35.828125 12.507812 L 35.828125 25.832031 L 22.507812 25.832031 Z M 22.507812 12.507812 " clip-rule="nonzero"/></clipPath></defs><g clip-path="url(#3835cb745d)"><path fill="#f03c2e" d="M 35.578125 18.578125 L 29.761719 12.761719 C 29.59375 12.59375 29.390625 12.507812 29.152344 12.507812 C 28.917969 12.507812 28.714844 12.59375 28.546875 12.761719 L 27.339844 13.96875 L 28.871094 15.5 C 29.230469 15.375 29.636719 15.460938 29.921875 15.746094 C 30.222656 16.046875 30.300781 16.398438 30.164062 16.800781 L 31.640625 18.277344 C 31.996094 18.152344 32.410156 18.234375 32.695312 18.519531 C 32.789062 18.613281 32.863281 18.726562 32.914062 18.851562 C 32.96875 18.976562 32.992188 19.105469 32.992188 19.242188 C 32.992188 19.375 32.96875 19.507812 32.914062 19.632812 C 32.863281 19.757812 32.789062 19.867188 32.695312 19.960938 C 32.597656 20.058594 32.488281 20.132812 32.363281 20.183594 C 32.238281 20.234375 32.105469 20.261719 31.972656 20.261719 C 31.835938 20.261719 31.707031 20.234375 31.582031 20.183594 C 31.457031 20.132812 31.34375 20.058594 31.25 19.960938 C 30.949219 19.664062 30.875 19.222656 31.027344 18.851562 L 29.648438 17.476562 L 29.648438 21.097656 C 29.75 21.148438 29.839844 21.214844 29.921875 21.292969 C 30.015625 21.386719 30.089844 21.5 30.140625 21.625 C 30.195312 21.75 30.21875 21.878906 30.21875 22.015625 C 30.21875 22.148438 30.195312 22.28125 30.140625 22.40625 C 30.089844 22.53125 30.015625 22.640625 29.921875 22.734375 C 29.824219 22.832031 29.714844 22.90625 29.589844 22.957031 C 29.464844 23.007812 29.335938 23.035156 29.199219 23.035156 C 29.0625 23.035156 28.933594 23.007812 28.808594 22.957031 C 28.683594 22.90625 28.574219 22.832031 28.476562 22.734375 C 28.382812 22.640625 28.308594 22.53125 28.253906 22.40625 C 28.203125 22.28125 28.175781 22.148438 28.175781 22.015625 C 28.175781 21.878906 28.203125 21.75 28.253906 21.625 C 28.308594 21.496094 28.382812 21.386719 28.476562 21.292969 C 28.574219 21.195312 28.683594 21.121094 28.8125 21.070312 L 28.8125 17.410156 C 28.691406 17.363281 28.574219 17.289062 28.476562 17.1875 C 28.332031 17.042969 28.238281 16.867188 28.195312 16.664062 C 28.15625 16.460938 28.175781 16.261719 28.257812 16.074219 L 26.746094 14.5625 L 22.757812 18.546875 C 22.589844 18.714844 22.503906 18.917969 22.503906 19.152344 C 22.503906 19.390625 22.589844 19.59375 22.757812 19.761719 L 28.574219 25.574219 C 28.742188 25.742188 28.945312 25.828125 29.179688 25.828125 C 29.417969 25.828125 29.621094 25.742188 29.789062 25.574219 L 35.578125 19.796875 C 35.746094 19.628906 35.828125 19.425781 35.828125 19.1875 C 35.828125 18.953125 35.746094 18.75 35.578125 18.582031 " fill-opacity="1" fill-rule="nonzero"/></g><g fill="#000000" fill-opacity="1"><g transform="translate(37.744397, 21.07773)"><g><path d="M 3.328125 2.75 C 2.304688 2.75 1.5625 2.578125 1.09375 2.234375 C 0.625 1.890625 0.390625 1.4375 0.390625 0.875 C 0.390625 0.507812 0.5 0.21875 0.71875 0 C 0.9375 -0.207031 1.253906 -0.359375 1.671875 -0.453125 L 1.671875 -0.578125 C 1.472656 -0.691406 1.320312 -0.820312 1.21875 -0.96875 C 1.125 -1.125 1.078125 -1.304688 1.078125 -1.515625 C 1.078125 -1.765625 1.15625 -1.96875 1.3125 -2.125 C 1.46875 -2.28125 1.703125 -2.398438 2.015625 -2.484375 L 2.015625 -2.609375 C 1.316406 -2.984375 0.96875 -3.585938 0.96875 -4.421875 C 0.96875 -4.835938 1.0625 -5.207031 1.25 -5.53125 C 1.445312 -5.863281 1.722656 -6.125 2.078125 -6.3125 C 2.429688 -6.5 2.84375 -6.59375 3.3125 -6.59375 C 3.851562 -6.59375 4.304688 -6.472656 4.671875 -6.234375 C 4.804688 -6.378906 4.910156 -6.539062 4.984375 -6.71875 C 5.054688 -6.894531 5.097656 -7.09375 5.109375 -7.3125 L 5.234375 -7.390625 L 6.03125 -7.203125 C 5.988281 -6.867188 5.882812 -6.585938 5.71875 -6.359375 C 5.5625 -6.140625 5.34375 -5.953125 5.0625 -5.796875 L 5.0625 -5.671875 C 5.269531 -5.515625 5.421875 -5.320312 5.515625 -5.09375 C 5.617188 -4.875 5.671875 -4.617188 5.671875 -4.328125 C 5.671875 -3.921875 5.570312 -3.554688 5.375 -3.234375 C 5.175781 -2.910156 4.898438 -2.65625 4.546875 -2.46875 C 4.191406 -2.28125 3.78125 -2.1875 3.3125 -2.1875 C 3.257812 -2.1875 3.164062 -2.191406 3.03125 -2.203125 C 2.875 -2.210938 2.753906 -2.21875 2.671875 -2.21875 C 2.472656 -2.21875 2.3125 -2.164062 2.1875 -2.0625 C 2.070312 -1.957031 2.015625 -1.820312 2.015625 -1.65625 C 2.015625 -1.445312 2.078125 -1.296875 2.203125 -1.203125 C 2.335938 -1.109375 2.554688 -1.054688 2.859375 -1.046875 L 4.390625 -0.984375 C 5.046875 -0.960938 5.53125 -0.8125 5.84375 -0.53125 C 6.164062 -0.25 6.328125 0.148438 6.328125 0.671875 C 6.328125 1.054688 6.222656 1.40625 6.015625 1.71875 C 5.804688 2.03125 5.476562 2.28125 5.03125 2.46875 C 4.582031 2.65625 4.015625 2.75 3.328125 2.75 Z M 3.3125 -3.015625 C 3.769531 -3.015625 4.125 -3.132812 4.375 -3.375 C 4.625 -3.613281 4.75 -3.945312 4.75 -4.375 C 4.75 -4.820312 4.625 -5.164062 4.375 -5.40625 C 4.132812 -5.644531 3.78125 -5.765625 3.3125 -5.765625 C 2.851562 -5.765625 2.503906 -5.644531 2.265625 -5.40625 C 2.023438 -5.164062 1.90625 -4.820312 1.90625 -4.375 C 1.90625 -3.9375 2.023438 -3.597656 2.265625 -3.359375 C 2.503906 -3.128906 2.851562 -3.015625 3.3125 -3.015625 Z M 3.328125 1.921875 C 3.804688 1.921875 4.195312 1.867188 4.5 1.765625 C 4.800781 1.660156 5.015625 1.519531 5.140625 1.34375 C 5.273438 1.164062 5.34375 0.972656 5.34375 0.765625 C 5.34375 0.566406 5.304688 0.410156 5.234375 0.296875 C 5.171875 0.179688 5.054688 0.09375 4.890625 0.03125 C 4.734375 -0.0195312 4.515625 -0.0546875 4.234375 -0.078125 L 2.796875 -0.140625 L 2.578125 -0.140625 C 1.773438 -0.128906 1.375 0.179688 1.375 0.796875 C 1.375 1.546875 2.023438 1.921875 3.328125 1.921875 Z M 3.328125 1.921875 "/></g></g></g><g fill="#000000" fill-opacity="1"><g transform="translate(44.364318, 21.07773)"><g><path d="M 1.609375 -7.71875 C 1.398438 -7.71875 1.234375 -7.78125 1.109375 -7.90625 C 0.984375 -8.03125 0.921875 -8.191406 0.921875 -8.390625 C 0.921875 -8.578125 0.984375 -8.734375 1.109375 -8.859375 C 1.234375 -8.992188 1.398438 -9.0625 1.609375 -9.0625 C 1.804688 -9.0625 1.96875 -8.992188 2.09375 -8.859375 C 2.226562 -8.734375 2.296875 -8.578125 2.296875 -8.390625 C 2.296875 -8.191406 2.226562 -8.03125 2.09375 -7.90625 C 1.96875 -7.78125 1.804688 -7.71875 1.609375 -7.71875 Z M 1.125 0 L 1.125 -6.46875 L 2.078125 -6.46875 L 2.078125 0 Z M 1.125 0 "/></g></g></g><g fill="#000000" fill-opacity="1"><g transform="translate(47.568846, 21.07773)"><g><path d="M 4.375 -1.03125 L 4.671875 -0.34375 C 4.523438 -0.1875 4.328125 -0.0703125 4.078125 0 C 3.828125 0.0820312 3.554688 0.125 3.265625 0.125 C 2.035156 0.125 1.421875 -0.5 1.421875 -1.75 L 1.421875 -5.6875 L 0.296875 -5.6875 L 0.296875 -6.46875 L 1.421875 -6.46875 L 1.421875 -7.828125 L 2.375 -8 L 2.375 -6.46875 L 4.453125 -6.46875 L 4.453125 -5.6875 L 2.375 -5.6875 L 2.375 -1.84375 C 2.375 -1.101562 2.695312 -0.734375 3.34375 -0.734375 C 3.695312 -0.734375 4 -0.832031 4.25 -1.03125 Z M 4.375 -1.03125 "/></g></g></g></svg>