<svg xmlns="http://www.w3.org/2000/svg" xmlns:xlink="http://www.w3.org/1999/xlink" width="100" zoomAndPan="magnify" viewBox="0 0 75 37.5" height="50" preserveAspectRatio="xMidYMid meet" version="1.0"><defs><clipPath id="ae198b6e47"><path d="M 4.195312 13 L 50 13 L 50 24 L 4.195312 24 Z M 4.195312 13 " clip-rule="nonzero"/></clipPath><clipPath id="ce36cf8f06"><path d="M 51 7.300781 L 70.804688 7.300781 L 70.804688 29.503906 L 51 29.503906 Z M 51 7.300781 " clip-rule="nonzero"/></clipPath></defs><g clip-path="url(#ae198b6e47)"><path fill="#000000" d="M 4.195312 13.128906 L 7.730469 13.128906 L 7.730469 16.59375 L 10.960938 16.59375 L 10.960938 13.128906 L 14.496094 13.128906 L 14.496094 23.613281 L 10.960938 23.613281 L 10.960938 20.109375 L 7.730469 20.109375 L 7.730469 23.613281 L 4.195312 23.613281 Z M 19.144531 16.605469 L 16.027344 16.605469 L 16.027344 13.132812 L 25.789062 13.132812 L 25.789062 16.605469 L 22.675781 16.605469 L 22.675781 23.613281 L 19.140625 23.613281 L 19.140625 16.605469 Z M 27.335938 13.128906 L 31.023438 13.128906 L 33.289062 16.820312 L 35.554688 13.128906 L 39.238281 13.128906 L 39.238281 23.613281 L 35.714844 23.613281 L 35.714844 18.417969 L 33.285156 22.144531 L 33.222656 22.144531 L 30.800781 18.417969 L 30.800781 23.613281 L 27.34375 23.613281 Z M 41 13.128906 L 44.535156 13.128906 L 44.535156 20.15625 L 49.507812 20.15625 L 49.507812 23.621094 L 41 23.621094 Z M 41 13.128906 " fill-opacity="1" fill-rule="nonzero"/></g><g clip-path="url(#ce36cf8f06)"><path fill="#e44d26" d="M 51.1875 7.34375 L 70.808594 7.34375 L 69.023438 27.191406 L 60.984375 29.402344 L 52.972656 27.195312 Z M 51.1875 7.34375 " fill-opacity="1" fill-rule="nonzero"/></g><path fill="#f16529" d="M 67.492188 25.929688 L 69.023438 8.964844 L 61.007812 8.964844 L 61.007812 27.714844 Z M 67.492188 25.929688 " fill-opacity="1" fill-rule="nonzero"/><path fill="#ebebeb" d="M 57.75 16.328125 L 57.527344 13.835938 L 61.007812 13.835938 L 61.007812 11.402344 L 54.847656 11.402344 L 55.511719 18.765625 L 61.007812 18.765625 L 61.007812 16.328125 Z M 55.613281 19.980469 L 55.957031 23.804688 L 60.988281 25.191406 L 61 25.1875 L 61 22.65625 L 60.988281 22.65625 L 58.261719 21.921875 L 58.085938 19.976562 L 56.757812 19.976562 Z M 55.613281 19.980469 " fill-opacity="1" fill-rule="nonzero"/><path fill="#ffffff" d="M 66.644531 16.980469 L 66.703125 16.328125 L 60.996094 16.328125 L 60.996094 18.761719 L 64.019531 18.761719 L 63.734375 21.921875 L 60.996094 22.652344 L 60.996094 25.1875 L 66.03125 23.804688 L 66.066406 23.390625 Z M 61 13.835938 L 66.933594 13.835938 L 67.152344 11.394531 L 61 11.394531 Z M 61 13.835938 " fill-opacity="1" fill-rule="nonzero"/></svg>