<svg xmlns="http://www.w3.org/2000/svg" xmlns:xlink="http://www.w3.org/1999/xlink" width="100" zoomAndPan="magnify" viewBox="0 0 75 37.5" height="50" preserveAspectRatio="xMidYMid meet" version="1.0"><defs><clipPath id="3bc82f6167"><path d="M 4.316406 11.070312 L 70.929688 11.070312 L 70.929688 25.871094 L 4.316406 25.871094 Z M 4.316406 11.070312 " clip-rule="nonzero"/></clipPath><clipPath id="362bd7672e"><path d="M 9 11.070312 L 54 11.070312 L 54 25.871094 L 9 25.871094 Z M 9 11.070312 " clip-rule="nonzero"/></clipPath><clipPath id="ed351aacd3"><path d="M 47 11.070312 L 56 11.070312 L 56 25.871094 L 47 25.871094 Z M 47 11.070312 " clip-rule="nonzero"/></clipPath><clipPath id="a63e634598"><path d="M 50 11.070312 L 67 11.070312 L 67 25.871094 L 50 25.871094 Z M 50 11.070312 " clip-rule="nonzero"/></clipPath></defs><g clip-path="url(#3bc82f6167)"><path fill="#555588" d="M 6.496094 20.949219 C 6.496094 20.414062 6.3125 20.03125 5.945312 19.804688 C 5.582031 19.578125 5.054688 19.464844 4.359375 19.464844 L 4.359375 17.480469 C 4.703125 17.480469 5.011719 17.457031 5.277344 17.40625 C 5.550781 17.351562 5.777344 17.265625 5.960938 17.148438 C 6.144531 17.03125 6.28125 16.871094 6.371094 16.683594 C 6.464844 16.496094 6.503906 16.269531 6.496094 16.003906 L 6.496094 13.371094 C 6.496094 12.960938 6.546875 12.613281 6.652344 12.324219 C 6.757812 12.03125 6.949219 11.796875 7.21875 11.613281 C 7.496094 11.425781 7.871094 11.285156 8.34375 11.199219 C 8.816406 11.109375 9.417969 11.070312 10.144531 11.070312 L 10.144531 12.933594 C 9.941406 12.9375 9.738281 12.957031 9.539062 12.992188 C 9.359375 13.023438 9.210938 13.085938 9.078125 13.175781 C 8.960938 13.257812 8.863281 13.371094 8.796875 13.523438 C 8.730469 13.671875 8.695312 13.863281 8.695312 14.101562 L 8.695312 16.582031 C 8.660156 17.617188 8.011719 18.226562 6.746094 18.421875 L 6.746094 18.519531 C 7.382812 18.613281 7.875 18.816406 8.210938 19.117188 C 8.546875 19.417969 8.710938 19.832031 8.695312 20.351562 L 8.695312 22.828125 C 8.695312 23.066406 8.730469 23.261719 8.796875 23.410156 C 8.863281 23.558594 8.957031 23.675781 9.078125 23.757812 C 9.207031 23.847656 9.359375 23.90625 9.539062 23.941406 C 9.722656 23.972656 9.925781 23.992188 10.148438 23.996094 L 10.148438 25.871094 C 9.417969 25.871094 8.820312 25.828125 8.347656 25.738281 C 7.875 25.648438 7.5 25.511719 7.21875 25.324219 C 6.949219 25.140625 6.757812 24.902344 6.652344 24.609375 C 6.546875 24.320312 6.496094 23.96875 6.496094 23.558594 L 6.496094 20.949219 M 68.742188 23.558594 C 68.742188 23.96875 68.691406 24.320312 68.582031 24.609375 C 68.476562 24.902344 68.285156 25.140625 68.007812 25.324219 C 67.734375 25.511719 67.363281 25.648438 66.890625 25.738281 C 66.421875 25.828125 65.820312 25.871094 65.085938 25.871094 L 65.085938 23.996094 C 65.308594 23.992188 65.507812 23.972656 65.6875 23.941406 C 65.867188 23.90625 66.015625 23.847656 66.136719 23.757812 C 66.265625 23.675781 66.363281 23.558594 66.429688 23.410156 C 66.503906 23.261719 66.539062 23.066406 66.539062 22.828125 L 66.539062 20.351562 C 66.523438 19.832031 66.683594 19.421875 67.023438 19.117188 C 67.359375 18.8125 67.847656 18.613281 68.480469 18.519531 L 68.480469 18.421875 C 67.21875 18.226562 66.574219 17.613281 66.539062 16.582031 L 66.539062 14.101562 C 66.539062 13.863281 66.503906 13.671875 66.429688 13.523438 C 66.367188 13.378906 66.269531 13.261719 66.136719 13.175781 C 66.019531 13.085938 65.867188 13.023438 65.6875 12.992188 C 65.488281 12.957031 65.289062 12.9375 65.085938 12.933594 L 65.085938 11.070312 C 65.816406 11.070312 66.414062 11.113281 66.886719 11.199219 C 67.359375 11.289062 67.734375 11.425781 68.003906 11.617188 C 68.28125 11.796875 68.476562 12.035156 68.582031 12.328125 C 68.6875 12.617188 68.738281 12.964844 68.738281 13.371094 L 68.738281 16.007812 C 68.734375 16.273438 68.773438 16.5 68.863281 16.6875 C 68.953125 16.875 69.089844 17.03125 69.273438 17.152344 C 69.457031 17.269531 69.679688 17.351562 69.949219 17.410156 C 70.21875 17.457031 70.527344 17.484375 70.875 17.484375 L 70.875 19.46875 C 70.179688 19.46875 69.648438 19.582031 69.28125 19.808594 C 68.917969 20.035156 68.738281 20.414062 68.738281 20.949219 L 68.738281 23.5625 " fill-opacity="1" fill-rule="nonzero"/></g><path fill="#000000" d="M 13.710938 24.070312 C 13.523438 24.070312 13.355469 24.058594 13.214844 24.03125 C 13.074219 24.011719 12.953125 23.980469 12.847656 23.9375 L 12.847656 23.054688 C 12.980469 23.085938 13.117188 23.113281 13.253906 23.128906 C 13.410156 23.152344 13.566406 23.164062 13.722656 23.164062 C 13.863281 23.164062 14 23.144531 14.136719 23.109375 C 14.277344 23.074219 14.402344 23.011719 14.515625 22.921875 C 14.628906 22.828125 14.722656 22.699219 14.792969 22.535156 C 14.863281 22.371094 14.898438 22.164062 14.898438 21.914062 L 14.898438 13.816406 L 15.941406 13.816406 L 15.941406 21.804688 C 15.941406 22.191406 15.886719 22.53125 15.773438 22.816406 C 15.667969 23.097656 15.515625 23.332031 15.316406 23.519531 C 15.125 23.707031 14.890625 23.84375 14.617188 23.933594 C 14.347656 24.027344 13.972656 24.074219 13.644531 24.074219 M 21.121094 21.074219 L 21.078125 21.074219 C 20.953125 21.242188 20.832031 21.386719 20.710938 21.507812 C 20.589844 21.625 20.457031 21.722656 20.308594 21.800781 C 20.164062 21.878906 20 21.9375 19.824219 21.972656 C 19.644531 22.007812 19.4375 22.027344 19.203125 22.027344 C 18.949219 22.027344 18.710938 21.992188 18.496094 21.917969 C 18.285156 21.851562 18.097656 21.742188 17.933594 21.589844 C 17.777344 21.441406 17.65625 21.25 17.566406 21.027344 C 17.476562 20.800781 17.433594 20.53125 17.433594 20.21875 C 17.433594 19.613281 17.644531 19.148438 18.074219 18.824219 C 18.503906 18.496094 19.15625 18.320312 20.035156 18.292969 L 21.058594 18.253906 L 21.058594 17.867188 C 21.058594 17.621094 21.03125 17.414062 20.976562 17.246094 C 20.925781 17.082031 20.847656 16.949219 20.742188 16.847656 C 20.640625 16.746094 20.515625 16.671875 20.363281 16.625 C 20.214844 16.582031 20.042969 16.558594 19.851562 16.558594 C 19.554688 16.558594 19.265625 16.601562 18.988281 16.691406 C 18.722656 16.78125 18.46875 16.886719 18.222656 17.011719 L 17.867188 16.253906 C 18.140625 16.105469 18.449219 15.980469 18.785156 15.878906 C 19.132812 15.773438 19.488281 15.722656 19.851562 15.722656 C 20.230469 15.722656 20.554688 15.761719 20.832031 15.839844 C 21.109375 15.914062 21.339844 16.03125 21.515625 16.199219 C 21.695312 16.363281 21.835938 16.570312 21.921875 16.824219 C 22.011719 17.078125 22.058594 17.386719 22.058594 17.75 L 22.058594 21.917969 L 21.324219 21.917969 Z M 19.464844 21.210938 C 19.691406 21.210938 19.902344 21.175781 20.097656 21.105469 C 20.289062 21.035156 20.453125 20.929688 20.597656 20.789062 C 20.738281 20.644531 20.847656 20.464844 20.925781 20.253906 C 21.007812 20.035156 21.050781 19.777344 21.050781 19.488281 L 21.050781 18.9375 L 20.253906 18.976562 C 19.917969 18.992188 19.636719 19.03125 19.410156 19.089844 C 19.183594 19.148438 19.003906 19.230469 18.863281 19.335938 C 18.730469 19.4375 18.636719 19.566406 18.574219 19.71875 C 18.515625 19.867188 18.484375 20.035156 18.484375 20.222656 C 18.484375 20.5625 18.574219 20.816406 18.753906 20.972656 C 18.929688 21.132812 19.167969 21.210938 19.464844 21.210938 M 22.910156 15.835938 L 23.957031 15.835938 L 25.066406 19.21875 L 25.210938 19.691406 L 25.375 20.28125 L 25.527344 20.84375 L 25.621094 21.246094 L 25.660156 21.246094 L 25.753906 20.84375 L 25.90625 20.28125 L 26.070312 19.691406 L 26.21875 19.21875 L 27.328125 15.832031 L 28.375 15.832031 L 26.285156 21.917969 L 24.996094 21.917969 Z M 32.519531 21.074219 L 32.472656 21.074219 C 32.351562 21.242188 32.230469 21.386719 32.105469 21.507812 C 31.984375 21.625 31.851562 21.722656 31.703125 21.800781 C 31.558594 21.878906 31.398438 21.9375 31.21875 21.972656 C 31.042969 22.007812 30.832031 22.027344 30.601562 22.027344 C 30.34375 22.027344 30.109375 21.992188 29.894531 21.917969 C 29.683594 21.851562 29.492188 21.742188 29.332031 21.589844 C 29.175781 21.441406 29.050781 21.25 28.964844 21.027344 C 28.875 20.800781 28.828125 20.53125 28.828125 20.21875 C 28.828125 19.613281 29.042969 19.148438 29.46875 18.824219 C 29.902344 18.496094 30.554688 18.320312 31.429688 18.292969 L 32.457031 18.253906 L 32.457031 17.867188 C 32.457031 17.621094 32.429688 17.414062 32.375 17.246094 C 32.320312 17.082031 32.242188 16.949219 32.140625 16.847656 C 32.039062 16.746094 31.914062 16.671875 31.761719 16.625 C 31.609375 16.582031 31.441406 16.558594 31.246094 16.558594 C 30.953125 16.558594 30.664062 16.601562 30.382812 16.691406 C 30.121094 16.78125 29.867188 16.886719 29.621094 17.011719 L 29.261719 16.253906 C 29.539062 16.105469 29.84375 15.980469 30.183594 15.878906 C 30.53125 15.773438 30.882812 15.722656 31.246094 15.722656 C 31.625 15.722656 31.953125 15.761719 32.226562 15.839844 C 32.507812 15.914062 32.734375 16.03125 32.914062 16.199219 C 33.09375 16.363281 33.230469 16.570312 33.320312 16.824219 C 33.410156 17.078125 33.453125 17.386719 33.453125 17.75 L 33.453125 21.917969 L 32.726562 21.917969 Z M 30.863281 21.214844 C 31.089844 21.214844 31.300781 21.179688 31.492188 21.109375 C 31.6875 21.039062 31.851562 20.933594 31.996094 20.792969 C 32.136719 20.648438 32.246094 20.46875 32.324219 20.253906 C 32.40625 20.035156 32.445312 19.78125 32.445312 19.488281 L 32.445312 18.941406 L 31.648438 18.980469 C 31.316406 18.996094 31.035156 19.03125 30.808594 19.089844 C 30.582031 19.148438 30.398438 19.234375 30.261719 19.339844 C 30.128906 19.441406 30.03125 19.570312 29.972656 19.722656 C 29.914062 19.871094 29.882812 20.039062 29.882812 20.226562 C 29.882812 20.566406 29.972656 20.820312 30.148438 20.976562 C 30.328125 21.132812 30.566406 21.214844 30.863281 21.214844 M 39.707031 19.75 C 39.707031 20.105469 39.640625 20.429688 39.511719 20.714844 C 39.382812 20.996094 39.203125 21.234375 38.964844 21.429688 C 38.726562 21.625 38.4375 21.773438 38.09375 21.878906 C 37.753906 21.976562 37.367188 22.027344 36.941406 22.027344 C 36.527344 22.027344 36.140625 21.992188 35.78125 21.929688 C 35.425781 21.863281 35.125 21.769531 34.882812 21.644531 L 34.882812 20.660156 L 35.3125 20.835938 L 35.828125 20.984375 L 36.378906 21.097656 C 36.566406 21.121094 36.753906 21.136719 36.945312 21.136719 C 37.539062 21.136719 37.976562 21.023438 38.257812 20.804688 C 38.542969 20.582031 38.6875 20.265625 38.6875 19.851562 C 38.6875 19.652344 38.660156 19.476562 38.605469 19.328125 C 38.550781 19.179688 38.457031 19.046875 38.320312 18.925781 C 38.1875 18.800781 38.007812 18.679688 37.78125 18.566406 C 37.554688 18.445312 37.265625 18.320312 36.921875 18.179688 C 36.59375 18.050781 36.304688 17.914062 36.058594 17.757812 C 35.820312 17.605469 35.617188 17.433594 35.457031 17.238281 C 35.296875 17.042969 35.179688 16.824219 35.105469 16.585938 C 35.03125 16.339844 34.992188 16.0625 34.992188 15.753906 C 34.992188 15.429688 35.054688 15.136719 35.171875 14.882812 C 35.292969 14.628906 35.457031 14.414062 35.671875 14.242188 C 35.890625 14.0625 36.144531 13.929688 36.441406 13.835938 C 36.738281 13.746094 37.074219 13.699219 37.433594 13.699219 C 37.875 13.699219 38.273438 13.742188 38.625 13.824219 C 38.980469 13.90625 39.292969 14.011719 39.570312 14.140625 L 39.195312 15.003906 C 38.957031 14.898438 38.679688 14.804688 38.371094 14.730469 C 38.058594 14.648438 37.746094 14.605469 37.421875 14.605469 C 36.96875 14.605469 36.621094 14.710938 36.371094 14.921875 C 36.121094 15.128906 35.996094 15.410156 35.996094 15.765625 C 35.996094 15.972656 36.023438 16.160156 36.082031 16.3125 C 36.136719 16.464844 36.230469 16.601562 36.359375 16.730469 C 36.488281 16.851562 36.65625 16.96875 36.871094 17.078125 C 37.128906 17.203125 37.394531 17.320312 37.664062 17.421875 C 38 17.554688 38.296875 17.6875 38.550781 17.832031 C 38.804688 17.972656 39.019531 18.128906 39.191406 18.304688 C 39.363281 18.484375 39.488281 18.6875 39.574219 18.921875 C 39.664062 19.152344 39.710938 19.4375 39.710938 19.757812 M 43.480469 22.023438 C 43.105469 22.023438 42.753906 21.964844 42.429688 21.851562 C 42.101562 21.730469 41.816406 21.546875 41.574219 21.296875 C 41.335938 21.042969 41.144531 20.71875 41.007812 20.328125 C 40.871094 19.929688 40.804688 19.457031 40.804688 18.90625 C 40.804688 18.324219 40.875 17.835938 41.011719 17.429688 C 41.152344 17.027344 41.347656 16.695312 41.589844 16.445312 C 41.839844 16.191406 42.128906 16.007812 42.460938 15.890625 C 42.792969 15.777344 43.148438 15.71875 43.523438 15.71875 C 43.8125 15.71875 44.09375 15.75 44.371094 15.816406 C 44.652344 15.878906 44.882812 15.953125 45.070312 16.046875 L 44.769531 16.902344 C 44.679688 16.859375 44.582031 16.824219 44.488281 16.796875 C 44.382812 16.757812 44.273438 16.726562 44.164062 16.699219 C 44.054688 16.671875 43.945312 16.648438 43.835938 16.632812 C 43.726562 16.617188 43.625 16.605469 43.527344 16.605469 C 42.945312 16.605469 42.519531 16.792969 42.253906 17.167969 C 41.984375 17.539062 41.851562 18.113281 41.851562 18.898438 C 41.851562 19.675781 41.984375 20.246094 42.253906 20.609375 C 42.519531 20.964844 42.9375 21.148438 43.484375 21.148438 C 43.78125 21.148438 44.054688 21.113281 44.296875 21.046875 C 44.542969 20.976562 44.765625 20.898438 44.964844 20.804688 L 44.964844 21.699219 C 44.761719 21.808594 44.546875 21.890625 44.320312 21.945312 C 44.09375 22 43.800781 22.027344 43.46875 22.027344 M 49.007812 15.722656 L 49.371094 15.738281 C 49.484375 15.746094 49.601562 15.757812 49.714844 15.777344 L 49.582031 16.707031 L 49.257812 16.664062 C 49.148438 16.648438 49.046875 16.640625 48.949219 16.640625 C 48.714844 16.640625 48.503906 16.691406 48.308594 16.785156 C 48.117188 16.878906 47.953125 17.011719 47.808594 17.191406 C 47.671875 17.363281 47.5625 17.574219 47.484375 17.824219 C 47.410156 18.066406 47.375 18.335938 47.375 18.636719 L 47.375 21.917969 L 46.359375 21.917969 L 46.359375 15.835938 L 47.183594 15.835938 L 47.308594 16.949219 L 47.351562 16.949219 L 47.648438 16.488281 C 47.75 16.34375 47.867188 16.214844 48.003906 16.101562 C 48.136719 15.988281 48.285156 15.898438 48.449219 15.832031 C 48.613281 15.761719 48.816406 15.726562 49.023438 15.726562 " fill-opacity="1" fill-rule="nonzero"/><g clip-path="url(#362bd7672e)"><path stroke-linecap="butt" transform="matrix(0.297778, 0, 0, 0.296053, 1.382619, 9.588272)" fill="none" stroke-linejoin="miter" d="M 41.401073 48.917116 C 40.771409 48.917116 40.207335 48.877532 39.735087 48.785171 C 39.262839 48.719199 38.85618 48.613643 38.501994 48.468504 L 38.501994 45.48656 C 38.948006 45.592115 39.407137 45.684476 39.866267 45.737254 C 40.390987 45.816421 40.915707 45.856004 41.440427 45.856004 C 41.912676 45.856004 42.371806 45.790032 42.830936 45.671282 C 43.303184 45.552532 43.72296 45.341421 44.103382 45.037949 C 44.483804 44.721282 44.798637 44.285865 45.034761 43.731699 C 45.270885 43.177532 45.388947 42.478226 45.388947 41.633782 L 45.388947 14.281697 L 48.891454 14.281697 L 48.891454 41.264337 C 48.891454 42.570587 48.707802 43.718504 48.32738 44.681699 C 47.973194 45.631699 47.461591 46.423365 46.792573 47.056699 C 46.149791 47.690032 45.362711 48.151838 44.44445 48.45531 C 43.539308 48.771977 42.27998 48.93031 41.178067 48.93031 M 66.285928 38.796976 L 66.14163 38.796976 C 65.721854 39.364337 65.315196 39.852532 64.908537 40.26156 C 64.501879 40.657393 64.055867 40.987254 63.557383 41.251143 C 63.072017 41.515032 62.521061 41.712949 61.93075 41.831699 C 61.327322 41.950449 60.632068 42.016421 59.844988 42.016421 C 58.992317 42.016421 58.192119 41.897671 57.470629 41.646976 C 56.762257 41.422671 56.132592 41.053226 55.581636 40.538643 C 55.056916 40.037254 54.650258 39.390726 54.348544 38.638643 C 54.04683 37.873365 53.902532 36.962948 53.902532 35.907393 C 53.902532 33.862254 54.610904 32.292115 56.053884 31.196976 C 57.496865 30.088643 59.687572 29.494892 62.639123 29.402531 L 66.07604 29.270587 L 66.07604 27.964337 C 66.07604 27.133087 65.984214 26.433781 65.800562 25.86642 C 65.630028 25.312253 65.367668 24.863642 65.013481 24.520587 C 64.672413 24.177531 64.252637 23.926837 63.741035 23.768503 C 63.242551 23.623364 62.665359 23.544198 62.022576 23.544198 C 61.025608 23.544198 60.054876 23.689337 59.123497 23.992809 C 58.231473 24.296281 57.378803 24.652531 56.552369 25.074753 L 55.35863 22.515031 C 56.27689 22.013642 57.313213 21.59142 58.441361 21.248364 C 59.608864 20.892114 60.802602 20.720587 62.022576 20.720587 C 63.295023 20.720587 64.383817 20.852531 65.315196 21.11642 C 66.246574 21.367114 67.020536 21.762948 67.610846 22.330309 C 68.214275 22.884476 68.686523 23.583781 68.975119 24.44142 C 69.276833 25.299059 69.434249 26.34142 69.434249 27.568504 L 69.434249 41.646976 L 66.968064 41.646976 Z M 60.723894 39.258782 C 61.484738 39.258782 62.19311 39.140032 62.849011 38.902532 C 63.491793 38.665032 64.042749 38.308782 64.528115 37.833782 C 65.000363 37.345587 65.367668 36.738643 65.630028 36.026143 C 65.905506 35.287254 66.049804 34.41642 66.049804 33.440032 L 66.049804 31.579615 L 63.373731 31.711559 C 62.245582 31.764337 61.301086 31.896281 60.540242 32.094198 C 59.779398 32.292115 59.175969 32.569198 58.703721 32.925448 C 58.257709 33.268504 57.942877 33.70392 57.732989 34.218504 C 57.536219 34.719893 57.431275 35.287254 57.431275 35.920587 C 57.431275 37.068504 57.732989 37.926143 58.336417 38.453921 C 58.926727 38.994893 59.726926 39.258782 60.723894 39.258782 M 72.293974 21.103225 L 75.809599 21.103225 L 79.535112 32.529615 L 80.020479 34.126143 L 80.571435 36.118504 L 81.083037 38.018504 L 81.397869 39.377532 L 81.529049 39.377532 L 81.843881 38.018504 L 82.355483 36.118504 L 82.90644 34.126143 L 83.404924 32.529615 L 87.130437 21.090031 L 90.646062 21.090031 L 83.62793 41.646976 L 79.298988 41.646976 Z M 104.564265 38.796976 L 104.406849 38.796976 C 104.000191 39.364337 103.593533 39.852532 103.173756 40.26156 C 102.767098 40.657393 102.321086 40.987254 101.822602 41.251143 C 101.337236 41.515032 100.799398 41.712949 100.195969 41.831699 C 99.605659 41.950449 98.897287 42.016421 98.123325 42.016421 C 97.257536 42.016421 96.470456 41.897671 95.748966 41.646976 C 95.040594 41.422671 94.397811 41.053226 93.859973 40.538643 C 93.335253 40.037254 92.915477 39.390726 92.626881 38.638643 C 92.325167 37.873365 92.167751 36.962948 92.167751 35.907393 C 92.167751 33.862254 92.889241 32.292115 94.319103 31.196976 C 95.775202 30.088643 97.965909 29.494892 100.904342 29.402531 L 104.354377 29.270587 L 104.354377 27.964337 C 104.354377 27.133087 104.262551 26.433781 104.078899 25.86642 C 103.895247 25.312253 103.632887 24.863642 103.291819 24.520587 C 102.95075 24.177531 102.530974 23.926837 102.019372 23.768503 C 101.50777 23.623364 100.943696 23.544198 100.287796 23.544198 C 99.303945 23.544198 98.333213 23.689337 97.388717 23.992809 C 96.50981 24.296281 95.65714 24.652531 94.830706 25.074753 L 93.623849 22.515031 C 94.555228 22.013642 95.578432 21.59142 96.719698 21.248364 C 97.887201 20.892114 99.067821 20.720587 100.287796 20.720587 C 101.560242 20.720587 102.662154 20.852531 103.580415 21.11642 C 104.524911 21.367114 105.285755 21.762948 105.889183 22.330309 C 106.492612 22.884476 106.951742 23.583781 107.253456 24.44142 C 107.55517 25.299059 107.699468 26.34142 107.699468 27.568504 L 107.699468 41.646976 L 105.259519 41.646976 Z M 99.002231 39.271976 C 99.763075 39.271976 100.471448 39.153226 101.11423 38.915726 C 101.77013 38.678226 102.321086 38.321976 102.806452 37.846976 C 103.278701 37.358782 103.646005 36.751837 103.908365 36.026143 C 104.183843 35.287254 104.315023 34.429615 104.315023 33.440032 L 104.315023 31.592809 L 101.63895 31.724754 C 100.52392 31.777531 99.579423 31.896281 98.818579 32.094198 C 98.057735 32.292115 97.441189 32.582393 96.982058 32.938643 C 96.536046 33.281698 96.208096 33.717115 96.011326 34.231698 C 95.814556 34.733087 95.709612 35.300448 95.709612 35.933782 C 95.709612 37.081698 96.011326 37.939337 96.601636 38.467115 C 97.205064 38.994893 98.005263 39.271976 99.002231 39.271976 M 128.701393 34.324059 C 128.701393 35.524754 128.478387 36.619893 128.045493 37.583087 C 127.612599 38.533087 127.009171 39.337948 126.208972 39.997671 C 125.408774 40.657393 124.438042 41.158782 123.283657 41.515032 C 122.142391 41.844893 120.843709 42.016421 119.413846 42.016421 C 118.023338 42.016421 116.724655 41.897671 115.517799 41.68656 C 114.32406 41.462254 113.313974 41.145587 112.500658 40.723365 L 112.500658 37.398365 L 113.943638 37.992115 L 115.675215 38.493504 L 117.524853 38.876143 C 118.154518 38.95531 118.784182 39.008087 119.426964 39.008087 C 121.420901 39.008087 122.890117 38.625448 123.834614 37.88656 C 124.792228 37.134476 125.277594 36.065726 125.277594 34.667115 C 125.277594 33.994198 125.185768 33.400448 125.002116 32.899059 C 124.818464 32.39767 124.503632 31.949059 124.044502 31.540031 C 123.598489 31.117809 122.995061 30.708781 122.234217 30.326143 C 121.473373 29.917115 120.50264 29.494892 119.348256 29.019892 C 118.246344 28.584476 117.275611 28.12267 116.449177 27.594892 C 115.648979 27.080309 114.966843 26.499753 114.429004 25.840031 C 113.891166 25.180309 113.497626 24.44142 113.248384 23.636559 C 112.999142 22.805309 112.867962 21.868503 112.867962 20.826142 C 112.867962 19.731003 113.07785 18.74142 113.47139 17.883781 C 113.878048 17.026142 114.429004 16.300447 115.150495 15.719892 C 115.885103 15.112947 116.737773 14.664336 117.734741 14.34767 C 118.73171 14.044197 119.859858 13.885864 121.066715 13.885864 C 122.549049 13.885864 123.887086 14.031003 125.067706 14.308086 C 126.261444 14.58517 127.310885 14.94142 128.242263 15.376836 L 126.982935 18.292809 C 126.182736 17.936559 125.251358 17.619892 124.215036 17.369198 C 123.165595 17.092114 122.116155 16.946975 121.027361 16.946975 C 119.505672 16.946975 118.33817 17.303225 117.498617 18.015725 C 116.659065 18.715031 116.239289 19.665031 116.239289 20.865725 C 116.239289 21.565031 116.331115 22.198364 116.527885 22.712948 C 116.711537 23.227531 117.026369 23.689337 117.459263 24.124753 C 117.892158 24.533781 118.456232 24.929615 119.177722 25.299059 C 120.04351 25.721281 120.935535 26.117115 121.840677 26.46017 C 122.968825 26.908781 123.965794 27.357392 124.818464 27.845587 C 125.671134 28.320587 126.392624 28.848365 126.969817 29.442115 C 127.547009 30.049059 127.966785 30.73517 128.255381 31.526837 C 128.557095 32.305309 128.714511 33.268504 128.714511 34.350448 M 141.373386 42.003226 C 140.114057 42.003226 138.933437 41.80531 137.844642 41.422671 C 136.74273 41.013643 135.785116 40.393504 134.971799 39.54906 C 134.171601 38.691421 133.528819 37.596282 133.069689 36.276837 C 132.610559 34.931004 132.387553 33.334476 132.387553 31.474059 C 132.387553 29.508087 132.623677 27.858781 133.082807 26.486559 C 133.555055 25.127531 134.210955 24.006003 135.024271 23.161559 C 135.863824 22.30392 136.834556 21.683781 137.949586 21.287948 C 139.064617 20.905309 140.258355 20.707392 141.517684 20.707392 C 142.488416 20.707392 143.432912 20.812948 144.364291 21.037253 C 145.308787 21.248364 146.082749 21.499059 146.712413 21.815726 L 145.702327 24.705309 C 145.400613 24.56017 145.072663 24.44142 144.757831 24.349059 C 144.403645 24.217114 144.03634 24.111559 143.669036 24.019198 C 143.301732 23.926837 142.934428 23.84767 142.567124 23.794892 C 142.19982 23.742114 141.858752 23.702531 141.530802 23.702531 C 139.576219 23.702531 138.146356 24.335864 137.254332 25.602531 C 136.34919 26.856003 135.903178 28.795587 135.903178 31.44767 C 135.903178 34.073365 136.34919 35.999754 137.254332 37.226837 C 138.146356 38.427532 139.549983 39.047671 141.386504 39.047671 C 142.383472 39.047671 143.301732 38.928921 144.115049 38.704615 C 144.941483 38.467115 145.689209 38.203226 146.358227 37.88656 L 146.358227 40.908087 C 145.676091 41.277532 144.954601 41.554615 144.193757 41.739337 C 143.432912 41.92406 142.449062 42.016421 141.334032 42.016421 M 159.935362 20.720587 L 161.155336 20.773364 C 161.535758 20.799753 161.929299 20.839337 162.309721 20.905309 L 161.863709 24.045587 L 160.774914 23.900448 C 160.40761 23.84767 160.066542 23.821281 159.738592 23.821281 C 158.951512 23.821281 158.243139 23.992809 157.587239 24.309476 C 156.944457 24.626142 156.393501 25.074753 155.908135 25.681698 C 155.449004 26.262253 155.0817 26.974753 154.81934 27.819198 C 154.570098 28.637254 154.452036 29.54767 154.452036 30.563643 L 154.452036 41.646976 L 151.041355 41.646976 L 151.041355 21.103225 L 153.809254 21.103225 L 154.22903 24.863642 L 154.373328 24.863642 L 155.370296 23.306698 C 155.711364 22.818503 156.104905 22.383087 156.564035 22.000448 C 157.010047 21.617809 157.508531 21.314337 158.059487 21.090031 C 158.610443 20.852531 159.29258 20.733781 159.987834 20.733781 " stroke="#000000" stroke-width="2.129" stroke-opacity="1" stroke-miterlimit="4"/></g><path fill="#000000" d="M 51.859375 21.917969 L 50.84375 21.917969 L 50.84375 15.832031 L 51.859375 15.832031 L 51.859375 21.917969 M 50.933594 13.703125 C 51.046875 13.605469 51.1875 13.554688 51.355469 13.554688 C 51.4375 13.554688 51.511719 13.566406 51.582031 13.59375 C 51.65625 13.613281 51.71875 13.652344 51.773438 13.703125 C 51.828125 13.753906 51.871094 13.820312 51.902344 13.902344 C 51.933594 13.980469 51.949219 14.074219 51.949219 14.1875 C 51.949219 14.398438 51.890625 14.558594 51.773438 14.667969 C 51.65625 14.769531 51.519531 14.824219 51.355469 14.824219 C 51.1875 14.824219 51.042969 14.746094 50.925781 14.640625 C 50.816406 14.539062 50.761719 14.378906 50.761719 14.171875 C 50.761719 13.964844 50.820312 13.804688 50.929688 13.703125 Z M 50.933594 13.703125 " fill-opacity="1" fill-rule="nonzero"/><g clip-path="url(#ed351aacd3)"><path stroke-linecap="square" transform="matrix(0.297778, 0, 0, 0.296053, 1.382619, 9.588272)" fill="none" stroke-linejoin="miter" d="M 169.511505 41.646976 L 166.100824 41.646976 L 166.100824 21.090031 L 169.511505 21.090031 L 169.511505 41.646976 M 166.402538 13.899059 C 166.78296 13.569197 167.255208 13.39767 167.819283 13.39767 C 168.094761 13.39767 168.344003 13.437253 168.580127 13.529614 C 168.829369 13.595586 169.039257 13.727531 169.222909 13.899059 C 169.406561 14.070586 169.550859 14.294892 169.655803 14.571975 C 169.760747 14.835864 169.813219 15.152531 169.813219 15.53517 C 169.813219 16.24767 169.616449 16.788642 169.222909 17.158086 C 168.829369 17.501142 168.370239 17.685864 167.819283 17.685864 C 167.255208 17.685864 166.769842 17.421975 166.376302 17.065725 C 166.008998 16.72267 165.825346 16.181697 165.825346 15.482392 C 165.825346 14.783086 166.022116 14.242114 166.38942 13.899059 Z M 166.402538 13.899059 " stroke="#000000" stroke-width="2.129" stroke-opacity="1" stroke-miterlimit="4"/></g><path fill="#000000" d="M 56.511719 22.027344 C 56.292969 22.027344 56.09375 22.003906 55.914062 21.957031 C 55.734375 21.90625 55.574219 21.84375 55.429688 21.769531 C 55.289062 21.6875 55.160156 21.59375 55.050781 21.484375 C 54.945312 21.378906 54.847656 21.265625 54.761719 21.148438 L 54.695312 21.148438 L 54.726562 21.507812 L 54.75 21.804688 L 54.761719 22.042969 L 54.761719 24.640625 L 53.746094 24.640625 L 53.746094 15.832031 L 54.570312 15.832031 L 54.714844 16.652344 L 54.761719 16.652344 C 54.84375 16.523438 54.941406 16.40625 55.050781 16.292969 C 55.160156 16.175781 55.285156 16.078125 55.421875 16 C 55.570312 15.914062 55.730469 15.847656 55.910156 15.800781 C 56.085938 15.75 56.289062 15.722656 56.511719 15.722656 C 56.859375 15.722656 57.175781 15.789062 57.460938 15.921875 C 57.757812 16.0625 58 16.261719 58.191406 16.519531 C 58.398438 16.785156 58.554688 17.113281 58.667969 17.5 C 58.785156 17.890625 58.835938 18.347656 58.835938 18.863281 C 58.835938 19.386719 58.78125 19.84375 58.667969 20.238281 C 58.558594 20.628906 58.398438 20.957031 58.191406 21.222656 C 57.992188 21.488281 57.746094 21.691406 57.464844 21.828125 C 57.175781 21.960938 56.789062 22.027344 56.441406 22.027344 M 56.316406 16.558594 C 56.03125 16.558594 55.792969 16.601562 55.597656 16.6875 C 55.402344 16.773438 55.242188 16.902344 55.121094 17.074219 C 55.003906 17.246094 54.914062 17.464844 54.855469 17.726562 C 54.800781 17.984375 54.769531 18.289062 54.761719 18.640625 L 54.761719 18.867188 C 54.761719 19.238281 54.785156 19.574219 54.832031 19.863281 C 54.882812 20.152344 54.96875 20.394531 55.089844 20.59375 C 55.207031 20.789062 55.371094 20.941406 55.574219 21.042969 C 55.773438 21.144531 56.023438 21.195312 56.324219 21.195312 C 56.828125 21.195312 57.195312 20.992188 57.429688 20.589844 C 57.667969 20.1875 57.785156 19.609375 57.785156 18.855469 C 57.785156 18.085938 57.667969 17.511719 57.429688 17.132812 C 57.195312 16.753906 56.824219 16.5625 56.3125 16.5625 M 62.214844 21.203125 C 62.285156 21.203125 62.355469 21.195312 62.441406 21.191406 L 62.683594 21.164062 L 62.894531 21.125 L 63.042969 21.085938 L 63.042969 21.851562 C 62.996094 21.871094 62.933594 21.894531 62.859375 21.917969 C 62.785156 21.9375 62.703125 21.957031 62.613281 21.972656 C 62.523438 21.992188 62.429688 22.003906 62.335938 22.011719 C 62.242188 22.023438 62.148438 22.027344 62.050781 22.027344 C 61.832031 22.027344 61.621094 22 61.410156 21.9375 C 61.214844 21.878906 61.042969 21.777344 60.898438 21.632812 C 60.757812 21.488281 60.644531 21.296875 60.5625 21.050781 C 60.480469 20.804688 60.441406 20.496094 60.441406 20.121094 L 60.441406 16.59375 L 59.578125 16.59375 L 59.578125 16.144531 L 60.441406 15.710938 L 60.875 14.4375 L 61.460938 14.4375 L 61.460938 15.832031 L 63 15.832031 L 63 16.59375 L 61.460938 16.59375 L 61.460938 20.121094 C 61.460938 20.476562 61.519531 20.75 61.632812 20.929688 C 61.753906 21.109375 61.945312 21.203125 62.214844 21.203125 " fill-opacity="1" fill-rule="nonzero"/><g clip-path="url(#a63e634598)"><path stroke-linecap="butt" transform="matrix(0.297778, 0, 0, 0.296053, 1.382619, 9.588272)" fill="none" stroke-linejoin="miter" d="M 185.135049 42.016421 C 184.40044 42.016421 183.731422 41.937254 183.127994 41.778921 C 182.524566 41.607393 181.986727 41.396282 181.501361 41.145587 C 181.029113 40.868504 180.596219 40.551837 180.228915 40.182393 C 179.874729 39.826143 179.546779 39.443504 179.258183 39.047671 L 179.035176 39.047671 L 179.140121 40.26156 L 179.218829 41.264337 L 179.258183 42.069199 L 179.258183 50.843504 L 175.847501 50.843504 L 175.847501 21.090031 L 178.6154 21.090031 L 179.100767 23.860864 L 179.258183 23.860864 C 179.533661 23.425448 179.861611 23.029614 180.228915 22.646976 C 180.596219 22.251142 181.015995 21.921281 181.475125 21.657392 C 181.973609 21.367114 182.511448 21.142809 183.114876 20.984475 C 183.705186 20.812948 184.387322 20.720587 185.135049 20.720587 C 186.302551 20.720587 187.365109 20.944892 188.322724 21.393503 C 189.319692 21.868503 190.133008 22.54142 190.77579 23.412253 C 191.471045 24.309476 191.995765 25.417809 192.376187 26.724059 C 192.769727 28.043504 192.940261 29.587254 192.940261 31.32892 C 192.940261 33.096976 192.756609 34.640726 192.376187 35.973365 C 192.008883 37.292809 191.471045 38.401143 190.77579 39.298365 C 190.106772 40.195587 189.280338 40.881699 188.335842 41.343504 C 187.365109 41.792115 186.066427 42.016421 184.898924 42.016421 M 184.479148 23.544198 C 183.521534 23.544198 182.721336 23.689337 182.065436 23.979614 C 181.409535 24.269892 180.871697 24.705309 180.465039 25.285865 C 180.071499 25.86642 179.769785 26.605309 179.573015 27.489337 C 179.389363 28.36017 179.284419 29.389337 179.258183 30.576837 L 179.258183 31.342115 C 179.258183 32.595587 179.336891 33.730309 179.494307 34.706698 C 179.664841 35.683087 179.953437 36.501143 180.360095 37.174059 C 180.753635 37.833782 181.304591 38.348365 181.986727 38.691421 C 182.655746 39.034476 183.495298 39.206004 184.505384 39.206004 C 186.197607 39.206004 187.430699 38.519893 188.21778 37.160865 C 189.017978 35.801837 189.411518 33.849059 189.411518 31.302531 C 189.411518 28.703226 189.017978 26.763642 188.21778 25.483781 C 187.430699 24.20392 186.184489 23.557392 184.46603 23.557392 M 204.287335 39.232393 C 204.523459 39.232393 204.759583 39.206004 205.048179 39.19281 L 205.861496 39.100448 L 206.569868 38.968504 L 207.068352 38.83656 L 207.068352 41.422671 C 206.910936 41.488643 206.701048 41.56781 206.451806 41.646976 C 206.202564 41.712949 205.927086 41.778921 205.625372 41.831699 C 205.323657 41.897671 205.008825 41.937254 204.693993 41.963643 C 204.379161 42.003226 204.064329 42.016421 203.736379 42.016421 C 203.001771 42.016421 202.293398 41.92406 201.585026 41.712949 C 200.929126 41.515032 200.351934 41.171976 199.866568 40.683782 C 199.394319 40.195587 199.013897 39.54906 198.738419 38.71781 C 198.462941 37.88656 198.331761 36.844198 198.331761 35.577532 L 198.331761 23.662948 L 195.432682 23.662948 L 195.432682 22.145587 L 198.331761 20.681003 L 199.78786 16.379614 L 201.75556 16.379614 L 201.75556 21.090031 L 206.924054 21.090031 L 206.924054 23.662948 L 201.75556 23.662948 L 201.75556 35.577532 C 201.75556 36.778226 201.95233 37.701837 202.332752 38.308782 C 202.739411 38.915726 203.382193 39.232393 204.287335 39.232393 " stroke="#000000" stroke-width="2.129" stroke-opacity="1" stroke-miterlimit="4"/></g></svg>