<svg xmlns="http://www.w3.org/2000/svg" xmlns:xlink="http://www.w3.org/1999/xlink" width="100" zoomAndPan="magnify" viewBox="0 0 75 37.5" height="50" preserveAspectRatio="xMidYMid meet" version="1.0"><defs><clipPath id="f5a7342487"><path d="M 12.125 15 L 39 15 L 39 22 L 12.125 22 Z M 12.125 15 " clip-rule="nonzero"/></clipPath><clipPath id="02da44670a"><path d="M 54 12 L 71.335938 12 L 71.335938 22 L 54 22 Z M 54 12 " clip-rule="nonzero"/></clipPath><clipPath id="101e909904"><path d="M 24 15 L 53 15 L 53 25.886719 L 24 25.886719 Z M 24 15 " clip-rule="nonzero"/></clipPath><clipPath id="7dc447b690"><path d="M 6 11.085938 L 10.199219 11.085938 L 10.199219 24 L 6 24 Z M 6 11.085938 " clip-rule="nonzero"/></clipPath><clipPath id="a22ba39983"><path d="M 3.539062 11.085938 L 7 11.085938 L 7 25 L 3.539062 25 Z M 3.539062 11.085938 " clip-rule="nonzero"/></clipPath><clipPath id="6576a9fe64"><path d="M 6 22 L 8 22 L 8 25.886719 L 6 25.886719 Z M 6 22 " clip-rule="nonzero"/></clipPath></defs><g clip-path="url(#f5a7342487)"><path fill="#47474a" d="M 15.085938 19.0625 L 15.085938 20.597656 C 15.082031 20.65625 15.085938 20.71875 15.09375 20.777344 C 15.113281 20.960938 15.226562 21.070312 15.390625 21.121094 C 15.542969 21.160156 15.695312 21.191406 15.851562 21.210938 C 15.941406 21.222656 15.972656 21.261719 15.984375 21.359375 C 15.992188 21.703125 15.960938 21.746094 15.632812 21.722656 C 14.859375 21.683594 14.085938 21.671875 13.3125 21.722656 L 13.238281 21.722656 C 12.996094 21.734375 12.976562 21.714844 12.976562 21.472656 C 12.976562 21.429688 12.988281 21.378906 12.988281 21.339844 C 12.988281 21.265625 13.035156 21.230469 13.105469 21.230469 C 13.269531 21.207031 13.417969 21.167969 13.570312 21.136719 C 13.78125 21.085938 13.902344 20.957031 13.921875 20.742188 C 13.949219 20.511719 13.949219 20.269531 13.949219 20.035156 L 13.960938 17.328125 C 13.96875 17.15625 13.894531 17.027344 13.742188 16.945312 C 13.558594 16.84375 13.367188 16.761719 13.167969 16.703125 C 13.105469 16.683594 13.046875 16.671875 12.996094 16.640625 C 12.851562 16.570312 12.847656 16.441406 12.988281 16.359375 C 13.035156 16.328125 13.097656 16.308594 13.15625 16.300781 C 13.769531 16.207031 14.363281 16.058594 14.945312 15.84375 C 15.066406 15.804688 15.09375 15.816406 15.105469 15.933594 C 15.117188 16.007812 15.105469 16.097656 15.097656 16.167969 C 15.078125 16.300781 15.078125 16.429688 15.078125 16.550781 C 15.078125 16.601562 15.085938 16.652344 15.136719 16.683594 C 15.1875 16.714844 15.238281 16.683594 15.285156 16.652344 C 15.496094 16.492188 15.707031 16.339844 15.9375 16.210938 C 16.265625 16.027344 16.621094 15.867188 17.003906 15.816406 C 17.464844 15.753906 17.867188 15.875 18.21875 16.179688 C 18.363281 16.3125 18.492188 16.460938 18.597656 16.625 C 18.699219 16.773438 18.710938 16.777344 18.839844 16.675781 C 19.222656 16.390625 19.625 16.140625 20.054688 15.957031 C 20.507812 15.765625 20.96875 15.734375 21.433594 15.898438 C 21.902344 16.066406 22.226562 16.402344 22.417969 16.855469 C 22.578125 17.21875 22.648438 17.59375 22.648438 17.988281 L 22.648438 20.695312 C 22.648438 20.875 22.722656 20.988281 22.898438 21.078125 C 23.089844 21.152344 23.300781 21.1875 23.5 21.230469 C 23.632812 21.257812 23.632812 21.257812 23.632812 21.390625 C 23.613281 21.726562 23.582031 21.746094 23.261719 21.726562 C 22.453125 21.679688 21.648438 21.679688 20.839844 21.726562 C 20.679688 21.734375 20.679688 21.734375 20.667969 21.574219 L 20.667969 21.523438 C 20.660156 21.25 20.660156 21.25 20.921875 21.191406 L 21.183594 21.121094 C 21.390625 21.070312 21.492188 20.9375 21.492188 20.726562 L 21.523438 19.96875 L 21.503906 17.988281 C 21.496094 17.808594 21.457031 17.640625 21.394531 17.472656 C 21.140625 16.855469 20.589844 16.636719 20.058594 16.695312 C 19.65625 16.738281 19.304688 16.898438 18.972656 17.128906 C 18.902344 17.179688 18.851562 17.242188 18.863281 17.34375 C 18.953125 17.988281 18.890625 18.636719 18.902344 19.28125 L 18.902344 20.6875 C 18.902344 20.9375 19.003906 21.058594 19.242188 21.121094 L 19.707031 21.222656 C 19.777344 21.234375 19.816406 21.261719 19.816406 21.34375 L 19.816406 21.417969 C 19.808594 21.699219 19.789062 21.714844 19.503906 21.710938 C 18.703125 21.667969 17.898438 21.679688 17.105469 21.710938 C 16.832031 21.71875 16.8125 21.691406 16.824219 21.414062 C 16.832031 21.25 16.851562 21.242188 17.003906 21.210938 L 17.335938 21.152344 C 17.628906 21.089844 17.738281 20.980469 17.757812 20.667969 L 17.785156 19.988281 L 17.765625 17.960938 C 17.746094 17.707031 17.691406 17.464844 17.554688 17.230469 C 17.355469 16.859375 17.039062 16.667969 16.609375 16.644531 C 16.179688 16.617188 15.796875 16.777344 15.433594 16.980469 C 15.183594 17.125 15.074219 17.300781 15.09375 17.59375 L 15.09375 19.070312 Z M 34.007812 19.121094 L 34.007812 20.546875 C 34.011719 20.648438 34.015625 20.75 34.027344 20.851562 C 34.039062 21.003906 34.117188 21.097656 34.269531 21.132812 C 34.445312 21.183594 34.621094 21.214844 34.800781 21.222656 C 34.902344 21.234375 34.921875 21.273438 34.933594 21.355469 L 34.933594 21.425781 C 34.921875 21.78125 34.882812 21.820312 34.542969 21.800781 C 33.777344 21.75 33.015625 21.757812 32.25 21.800781 L 31.957031 21.808594 C 31.898438 21.808594 31.882812 21.78125 31.867188 21.738281 C 31.835938 21.597656 31.835938 21.457031 31.867188 21.316406 C 31.875 21.253906 31.917969 21.242188 31.976562 21.222656 C 32.125 21.203125 32.25 21.175781 32.386719 21.152344 C 32.640625 21.089844 32.730469 20.988281 32.738281 20.726562 L 32.769531 19.878906 L 32.769531 17.394531 C 32.769531 17.210938 32.699219 17.101562 32.539062 17.019531 C 32.355469 16.917969 32.167969 16.847656 31.964844 16.777344 C 31.90625 16.757812 31.84375 16.734375 31.792969 16.707031 C 31.664062 16.613281 31.648438 16.484375 31.773438 16.382812 C 31.832031 16.335938 31.898438 16.308594 31.976562 16.300781 C 32.617188 16.199219 33.242188 16.058594 33.84375 15.816406 C 33.914062 15.785156 33.945312 15.804688 33.972656 15.867188 C 34.003906 15.925781 34.015625 16 34.003906 16.066406 L 33.972656 16.542969 C 33.972656 16.601562 33.945312 16.691406 33.996094 16.714844 C 34.054688 16.753906 34.09375 16.664062 34.144531 16.640625 C 34.441406 16.390625 34.769531 16.179688 35.121094 16.015625 C 35.429688 15.867188 35.75 15.773438 36.113281 15.792969 C 36.789062 15.832031 37.269531 16.175781 37.582031 16.773438 C 37.742188 17.085938 37.8125 17.429688 37.839844 17.78125 L 37.871094 18.523438 L 37.882812 20.753906 C 37.890625 20.925781 37.953125 21.039062 38.121094 21.097656 C 38.300781 21.15625 38.480469 21.203125 38.664062 21.230469 C 38.828125 21.25 38.835938 21.28125 38.84375 21.429688 L 38.84375 21.480469 C 38.824219 21.824219 38.804688 21.835938 38.464844 21.8125 C 37.714844 21.773438 36.964844 21.773438 36.214844 21.8125 C 36.113281 21.824219 36.011719 21.8125 35.917969 21.824219 C 35.859375 21.824219 35.820312 21.8125 35.808594 21.753906 C 35.789062 21.621094 35.769531 21.492188 35.796875 21.347656 C 35.808594 21.289062 35.839844 21.257812 35.910156 21.246094 L 36.371094 21.175781 C 36.535156 21.132812 36.625 21.027344 36.644531 20.878906 L 36.664062 20.59375 L 36.652344 18.484375 C 36.652344 18.242188 36.644531 18 36.59375 17.757812 C 36.472656 17.238281 36.082031 16.871094 35.550781 16.820312 C 35.085938 16.769531 34.667969 16.890625 34.285156 17.140625 C 34.09375 17.261719 34.011719 17.433594 34.011719 17.644531 L 34.011719 19.171875 C 34.011719 19.140625 34.011719 19.140625 34.023438 19.140625 Z M 34.007812 19.121094 " fill-opacity="1" fill-rule="nonzero"/></g><g clip-path="url(#02da44670a)"><path fill="#c2bfbf" d="M 63.425781 16.261719 C 63.316406 15.527344 63.042969 14.871094 62.574219 14.292969 C 62.15625 13.777344 61.640625 13.394531 61.027344 13.140625 C 60.394531 12.878906 59.71875 12.796875 59.035156 12.777344 C 58.753906 12.769531 54.917969 12.828125 54.636719 12.777344 C 54.566406 12.769531 54.515625 12.789062 54.476562 12.847656 C 54.425781 12.921875 54.375 13 54.34375 13.082031 C 54.222656 13.355469 54.222656 13.335938 54.515625 13.375 C 54.753906 13.414062 54.988281 13.433594 55.21875 13.503906 C 55.429688 13.578125 55.578125 13.699219 55.628906 13.929688 C 55.648438 14.039062 55.671875 17.597656 55.671875 19.253906 L 55.628906 20.4375 C 55.621094 20.527344 55.609375 20.617188 55.578125 20.699219 C 55.539062 20.820312 55.46875 20.917969 55.347656 20.972656 C 55.214844 21.035156 55.074219 21.070312 54.925781 21.082031 C 54.65625 21.113281 54.617188 21.125 54.523438 21.425781 L 54.496094 21.535156 C 54.476562 21.667969 54.484375 21.6875 54.617188 21.6875 L 57.621094 21.71875 L 58.796875 21.699219 L 59.609375 21.597656 C 60.53125 21.425781 61.355469 21.042969 62.058594 20.425781 C 62.464844 20.066406 62.785156 19.640625 63.023438 19.152344 C 63.304688 18.585938 63.425781 17.96875 63.457031 17.34375 C 63.507812 16.992188 63.484375 16.628906 63.425781 16.265625 Z M 61.96875 17.699219 C 61.929688 18.34375 61.800781 18.96875 61.46875 19.535156 C 61.046875 20.273438 60.441406 20.789062 59.609375 20.96875 C 59.25 21.042969 58.886719 21.082031 58.507812 21.03125 C 58.234375 21 57.976562 20.96875 57.722656 20.878906 C 57.273438 20.714844 57.109375 20.433594 57.101562 19.992188 L 57.089844 13.902344 C 57.089844 13.539062 57.253906 13.457031 57.511719 13.445312 C 57.90625 13.417969 58.304688 13.425781 58.699219 13.464844 C 59.117188 13.507812 59.523438 13.605469 59.914062 13.761719 C 60.207031 13.882812 60.46875 14.050781 60.707031 14.257812 C 61.25 14.722656 61.613281 15.308594 61.808594 15.996094 C 61.972656 16.550781 62 17.117188 61.972656 17.679688 Z M 71.773438 18.6875 C 71.773438 18.628906 71.773438 18.578125 71.765625 18.515625 C 71.675781 17.960938 71.382812 17.535156 70.929688 17.214844 C 70.640625 17 70.308594 16.859375 69.96875 16.757812 C 69.90625 16.738281 69.855469 16.71875 69.796875 16.707031 C 69.808594 16.65625 69.835938 16.648438 69.867188 16.636719 C 70.066406 16.535156 70.257812 16.425781 70.429688 16.273438 C 70.742188 16.011719 70.945312 15.6875 71.050781 15.292969 C 71.113281 15.082031 71.113281 14.871094 71.09375 14.648438 C 71.058594 14.089844 70.8125 13.652344 70.359375 13.332031 C 69.894531 12.988281 69.355469 12.847656 68.792969 12.839844 C 67.707031 12.820312 66.613281 12.839844 65.527344 12.839844 C 65.214844 12.839844 64.90625 12.859375 64.582031 12.808594 C 64.523438 12.796875 64.4375 12.777344 64.394531 12.847656 C 64.320312 12.980469 64.230469 13.113281 64.203125 13.261719 C 64.191406 13.335938 64.210938 13.375 64.292969 13.382812 L 64.984375 13.484375 C 65.257812 13.527344 65.449219 13.679688 65.46875 13.921875 C 65.488281 14.089844 65.496094 14.257812 65.496094 14.425781 L 65.476562 16.3125 L 65.464844 20.050781 C 65.464844 20.273438 65.4375 20.484375 65.394531 20.707031 C 65.375 20.863281 65.285156 20.964844 65.136719 21.011719 C 64.933594 21.070312 64.742188 21.132812 64.53125 21.132812 C 64.398438 21.117188 64.3125 21.175781 64.269531 21.300781 C 64.230469 21.394531 64.199219 21.496094 64.179688 21.585938 C 64.160156 21.707031 64.191406 21.75 64.3125 21.734375 C 64.402344 21.722656 67.71875 21.804688 68.339844 21.742188 C 68.710938 21.703125 69.074219 21.652344 69.445312 21.542969 C 70.078125 21.339844 70.660156 21.046875 71.121094 20.550781 C 71.503906 20.148438 71.722656 19.664062 71.746094 19.097656 C 71.773438 18.964844 71.773438 18.835938 71.773438 18.691406 Z M 66.902344 14.546875 L 66.933594 13.742188 C 66.933594 13.589844 66.992188 13.519531 67.144531 13.488281 C 67.386719 13.4375 67.625 13.457031 67.867188 13.46875 C 68.109375 13.488281 68.339844 13.519531 68.578125 13.589844 C 69.019531 13.722656 69.363281 13.972656 69.566406 14.398438 C 69.65625 14.59375 69.703125 14.796875 69.707031 15.011719 C 69.714844 15.296875 69.695312 15.570312 69.585938 15.839844 C 69.414062 16.214844 69.144531 16.457031 68.75 16.527344 C 68.359375 16.601562 67.246094 16.570312 67.074219 16.570312 C 66.921875 16.570312 66.914062 16.550781 66.914062 16.398438 L 66.914062 15.445312 C 66.886719 15.152344 66.886719 14.855469 66.902344 14.558594 Z M 70.167969 19.984375 C 69.996094 20.4375 69.683594 20.75 69.242188 20.921875 C 69 21.011719 68.761719 21.070312 68.507812 21.054688 C 68.195312 21.042969 67.886719 21.054688 67.574219 20.992188 C 67.152344 20.902344 66.960938 20.496094 66.929688 20.203125 C 66.882812 19.6875 66.910156 19.164062 66.902344 18.78125 L 66.902344 17.445312 C 66.902344 17.285156 66.921875 17.234375 67.09375 17.234375 L 68.039062 17.246094 L 68.679688 17.320312 C 69.132812 17.421875 69.542969 17.59375 69.867188 17.945312 C 70.128906 18.226562 70.269531 18.570312 70.296875 18.945312 C 70.328125 19.296875 70.308594 19.640625 70.179688 19.976562 Z M 70.167969 19.984375 " fill-opacity="1" fill-rule="nonzero"/></g><g clip-path="url(#101e909904)"><path fill="#47474a" d="M 44.648438 16.941406 L 44.90625 16.980469 C 45.1875 16.992188 45.519531 16.890625 45.621094 16.496094 C 45.675781 16.304688 45.675781 16.109375 45.621094 15.917969 C 45.5625 15.917969 45.53125 15.96875 45.5 15.988281 C 45.351562 16.109375 45.179688 16.183594 45 16.203125 C 44.636719 16.242188 44.273438 16.222656 43.921875 16.089844 L 43.429688 15.917969 C 43.085938 15.804688 42.730469 15.757812 42.367188 15.777344 C 41.851562 15.820312 41.371094 15.992188 40.917969 16.234375 C 40.4375 16.496094 40.097656 16.890625 39.933594 17.425781 C 39.84375 17.738281 39.832031 18.0625 39.875 18.386719 C 39.972656 19.125 40.355469 19.636719 41.039062 19.910156 C 41.078125 19.921875 41.109375 19.941406 41.148438 19.953125 C 41.238281 20 41.25 20.054688 41.167969 20.125 L 40.917969 20.292969 L 40.316406 20.667969 C 40.164062 20.757812 40.144531 20.832031 40.195312 20.992188 C 40.253906 21.183594 40.363281 21.34375 40.515625 21.476562 C 40.652344 21.597656 40.808594 21.691406 40.976562 21.757812 C 41.089844 21.808594 41.089844 21.832031 40.988281 21.921875 L 40.414062 22.335938 C 40.222656 22.484375 40.03125 22.632812 39.871094 22.820312 C 39.628906 23.082031 39.550781 23.382812 39.632812 23.730469 C 39.707031 24.089844 39.882812 24.390625 40.152344 24.640625 C 40.417969 24.886719 40.726562 25.054688 41.078125 25.144531 C 41.640625 25.304688 42.222656 25.316406 42.792969 25.203125 C 43.617188 25.054688 44.339844 24.6875 44.902344 24.0625 C 45.296875 23.648438 45.527344 23.164062 45.546875 22.585938 C 45.570312 22.238281 45.480469 21.925781 45.273438 21.648438 C 45.070312 21.367188 44.796875 21.191406 44.460938 21.109375 L 43.921875 21.007812 L 42.261719 20.863281 C 42.082031 20.851562 41.902344 20.820312 41.75 20.730469 C 41.558594 20.609375 41.507812 20.375 41.628906 20.226562 C 41.71875 20.113281 41.832031 20.042969 41.972656 20.03125 L 42.292969 20.003906 C 42.945312 19.9375 43.511719 19.675781 43.988281 19.226562 C 44.242188 18.988281 44.414062 18.703125 44.503906 18.367188 C 44.621094 17.933594 44.621094 17.480469 44.523438 17.035156 C 44.492188 16.925781 44.503906 16.914062 44.640625 16.933594 Z M 42.183594 21.972656 C 42.246094 21.980469 42.304688 21.972656 42.367188 21.972656 C 42.789062 21.992188 43.21875 22.019531 43.632812 22.132812 C 43.765625 22.171875 43.894531 22.222656 44.023438 22.285156 C 44.425781 22.507812 44.574219 22.890625 44.523438 23.304688 C 44.464844 23.757812 44.214844 24.082031 43.820312 24.296875 C 43.5625 24.441406 43.269531 24.507812 42.96875 24.539062 C 42.855469 24.546875 42.757812 24.539062 42.644531 24.539062 C 42.292969 24.546875 41.953125 24.507812 41.621094 24.367188 C 41.390625 24.277344 41.199219 24.144531 41.027344 23.960938 C 40.679688 23.609375 40.515625 22.960938 41.039062 22.4375 C 41.359375 22.140625 41.722656 21.933594 42.183594 21.972656 Z M 43.328125 18.820312 C 43.117188 19.355469 42.65625 19.515625 42.195312 19.445312 C 41.773438 19.382812 41.460938 19.152344 41.261719 18.769531 C 41 18.253906 40.929688 17.71875 41.082031 17.164062 C 41.191406 16.75 41.441406 16.433594 41.882812 16.363281 C 42.445312 16.261719 42.988281 16.464844 43.269531 17.03125 C 43.417969 17.304688 43.480469 17.636719 43.480469 18.109375 C 43.472656 18.304688 43.429688 18.566406 43.332031 18.820312 Z M 30.675781 18.132812 C 30.582031 17.585938 30.382812 17.089844 30.011719 16.675781 C 29.457031 16.0625 28.753906 15.789062 27.960938 15.789062 C 27.269531 15.777344 26.617188 15.980469 26.035156 16.34375 C 25.4375 16.703125 25.046875 17.21875 24.859375 17.890625 C 24.6875 18.476562 24.695312 19.070312 24.828125 19.667969 C 25.179688 21.261719 26.40625 21.949219 27.871094 21.847656 C 28.304688 21.820312 28.714844 21.675781 29.105469 21.484375 C 29.6875 21.210938 30.109375 20.777344 30.402344 20.203125 C 30.632812 19.726562 30.734375 19.222656 30.722656 18.644531 L 30.671875 18.132812 Z M 29.25 20.375 C 29.175781 20.605469 29.042969 20.800781 28.855469 20.953125 C 28.667969 21.109375 28.453125 21.199219 28.214844 21.222656 C 27.773438 21.285156 27.359375 21.171875 26.988281 20.910156 C 26.714844 20.707031 26.503906 20.457031 26.355469 20.152344 C 25.945312 19.304688 25.871094 18.414062 26.082031 17.507812 C 26.152344 17.21875 26.292969 16.972656 26.503906 16.769531 C 26.878906 16.425781 27.308594 16.34375 27.792969 16.445312 C 28.253906 16.546875 28.605469 16.796875 28.894531 17.183594 C 29.183594 17.566406 29.316406 18.011719 29.394531 18.476562 C 29.4375 18.707031 29.4375 18.949219 29.445312 19.101562 C 29.445312 19.585938 29.40625 19.988281 29.253906 20.375 Z M 52.621094 18.214844 C 52.546875 17.628906 52.332031 17.09375 51.917969 16.648438 C 51.375 16.050781 50.671875 15.800781 49.890625 15.789062 C 49.214844 15.777344 48.59375 15.972656 48.019531 16.304688 C 47.378906 16.6875 46.9375 17.234375 46.765625 17.972656 C 46.554688 18.800781 46.636719 19.601562 47.007812 20.375 C 47.335938 21.082031 47.902344 21.535156 48.644531 21.738281 C 49.46875 21.960938 50.253906 21.859375 51.015625 21.484375 C 51.679688 21.164062 52.148438 20.65625 52.421875 19.96875 C 52.582031 19.566406 52.640625 19.132812 52.652344 18.625 C 52.664062 18.535156 52.640625 18.375 52.621094 18.210938 Z M 51.234375 20.242188 C 51.074219 20.789062 50.734375 21.140625 50.160156 21.222656 C 49.738281 21.285156 49.335938 21.183594 48.976562 20.941406 C 48.664062 20.726562 48.441406 20.445312 48.28125 20.113281 C 48.101562 19.757812 48 19.386719 47.960938 19 C 47.902344 18.527344 47.902344 18.0625 48.011719 17.589844 C 48.03125 17.492188 48.0625 17.402344 48.101562 17.316406 C 48.382812 16.609375 49.003906 16.285156 49.738281 16.445312 C 50.230469 16.558594 50.601562 16.832031 50.882812 17.246094 C 51.15625 17.648438 51.285156 18.09375 51.347656 18.574219 C 51.375 18.765625 51.386719 18.96875 51.375 19.140625 C 51.375 19.535156 51.347656 19.898438 51.230469 20.25 Z M 51.234375 20.242188 " fill-opacity="1" fill-rule="nonzero"/></g><g clip-path="url(#7dc447b690)"><path fill="#599636" d="M 6.847656 11.125 L 7.226562 11.867188 C 7.3125 12.003906 7.40625 12.125 7.511719 12.238281 C 7.832031 12.570312 8.132812 12.914062 8.402344 13.285156 C 9.046875 14.164062 9.480469 15.140625 9.789062 16.195312 C 9.972656 16.84375 10.074219 17.503906 10.082031 18.171875 C 10.113281 20.171875 9.457031 21.890625 8.128906 23.316406 C 7.910156 23.542969 7.679688 23.75 7.429688 23.9375 C 7.300781 23.9375 7.238281 23.832031 7.183594 23.734375 C 7.082031 23.558594 7.019531 23.355469 6.988281 23.15625 C 6.945312 22.914062 6.914062 22.671875 6.929688 22.421875 L 6.929688 22.308594 C 6.917969 22.285156 6.800781 11.183594 6.847656 11.125 Z M 6.847656 11.125 " fill-opacity="1" fill-rule="nonzero"/></g><g clip-path="url(#a22ba39983)"><path fill="#6cac48" d="M 6.847656 11.101562 C 6.832031 11.066406 6.816406 11.09375 6.800781 11.109375 C 6.808594 11.269531 6.753906 11.414062 6.667969 11.550781 C 6.578125 11.691406 6.453125 11.792969 6.328125 11.90625 C 5.640625 12.527344 5.097656 13.277344 4.664062 14.117188 C 4.089844 15.246094 3.789062 16.457031 3.707031 17.730469 C 3.667969 18.1875 3.84375 19.808594 3.984375 20.277344 C 4.363281 21.519531 5.042969 22.558594 5.925781 23.460938 C 6.144531 23.679688 6.375 23.878906 6.617188 24.074219 C 6.683594 24.074219 6.691406 24.007812 6.707031 23.960938 C 6.738281 23.859375 6.761719 23.753906 6.777344 23.648438 L 6.933594 22.4375 Z M 6.847656 11.101562 " fill-opacity="1" fill-rule="nonzero"/></g><g clip-path="url(#6576a9fe64)"><path fill="#c2bfbf" d="M 7.226562 24.429688 C 7.242188 24.242188 7.328125 24.089844 7.421875 23.9375 C 7.328125 23.894531 7.257812 23.816406 7.203125 23.726562 C 7.15625 23.644531 7.117188 23.550781 7.089844 23.460938 C 6.980469 23.121094 6.957031 22.765625 6.925781 22.421875 L 6.925781 22.210938 C 6.886719 22.242188 6.878906 22.519531 6.878906 22.558594 C 6.855469 22.925781 6.808594 23.289062 6.738281 23.648438 C 6.714844 23.792969 6.699219 23.9375 6.617188 24.066406 C 6.617188 24.082031 6.617188 24.097656 6.621094 24.121094 C 6.761719 24.550781 6.800781 24.984375 6.824219 25.429688 L 6.824219 25.589844 C 6.824219 25.785156 6.816406 25.742188 6.96875 25.808594 C 7.03125 25.832031 7.101562 25.839844 7.164062 25.886719 C 7.210938 25.886719 7.21875 25.847656 7.21875 25.816406 L 7.195312 25.550781 L 7.195312 24.808594 C 7.1875 24.679688 7.210938 24.550781 7.226562 24.429688 Z M 7.226562 24.429688 " fill-opacity="1" fill-rule="nonzero"/></g></svg>