<svg xmlns="http://www.w3.org/2000/svg" xmlns:xlink="http://www.w3.org/1999/xlink" width="100" zoomAndPan="magnify" viewBox="0 0 75 37.5" height="50" preserveAspectRatio="xMidYMid meet" version="1.0"><defs><clipPath id="989b92aa94"><path d="M 9.328125 22 L 33 22 L 33 33.304688 L 9.328125 33.304688 Z M 9.328125 22 " clip-rule="nonzero"/></clipPath><clipPath id="607280bc6c"><path d="M 44 4 L 65.578125 4 L 65.578125 25 L 44 25 Z M 44 4 " clip-rule="nonzero"/></clipPath><clipPath id="726b77f20b"><path d="M 62 28 L 65.578125 28 L 65.578125 31 L 62 31 Z M 62 28 " clip-rule="nonzero"/></clipPath></defs><g clip-path="url(#989b92aa94)"><path fill="#00618a" d="M 9.527344 30.746094 L 11.367188 30.746094 L 11.367188 23.472656 L 14.214844 29.816406 C 14.550781 30.582031 15.011719 30.855469 15.914062 30.855469 C 16.816406 30.855469 17.257812 30.585938 17.59375 29.816406 L 20.445312 23.472656 L 20.445312 30.75 L 22.285156 30.75 L 22.285156 23.484375 C 22.285156 22.777344 22 22.433594 21.417969 22.257812 C 20.019531 21.820312 19.082031 22.199219 18.65625 23.144531 L 15.863281 29.402344 L 13.15625 23.140625 C 12.746094 22.195312 11.792969 21.816406 10.394531 22.253906 C 9.8125 22.433594 9.527344 22.773438 9.527344 23.484375 Z M 23.8125 24.824219 L 25.652344 24.824219 L 25.652344 28.835938 C 25.636719 29.050781 25.722656 29.5625 26.730469 29.578125 C 27.246094 29.585938 30.699219 29.578125 30.734375 29.578125 L 30.734375 24.804688 L 32.578125 24.804688 C 32.585938 24.804688 32.574219 31.316406 32.574219 31.34375 C 32.585938 32.949219 30.585938 33.296875 29.664062 33.324219 L 23.855469 33.324219 L 23.855469 32.082031 L 29.675781 32.082031 C 30.859375 31.957031 30.71875 31.367188 30.71875 31.171875 L 30.71875 30.6875 L 26.808594 30.6875 C 24.988281 30.671875 23.832031 29.875 23.816406 28.960938 C 23.8125 28.878906 23.855469 24.863281 23.816406 24.824219 Z M 23.8125 24.824219 " fill-opacity="1" fill-rule="nonzero"/></g><path fill="#e48e00" d="M 33.996094 30.746094 L 39.285156 30.746094 C 39.902344 30.746094 40.507812 30.617188 40.984375 30.394531 C 41.78125 30.027344 42.167969 29.53125 42.167969 28.882812 L 42.167969 27.535156 C 42.167969 27.003906 41.726562 26.507812 40.859375 26.175781 C 40.398438 26 39.835938 25.90625 39.285156 25.90625 L 37.054688 25.90625 C 36.3125 25.90625 35.960938 25.679688 35.871094 25.183594 C 35.851562 25.125 35.851562 25.074219 35.851562 25.019531 L 35.851562 24.179688 C 35.851562 24.132812 35.851562 24.085938 35.871094 24.027344 C 35.960938 23.648438 36.152344 23.542969 36.808594 23.480469 C 36.863281 23.480469 36.933594 23.46875 36.984375 23.46875 L 42.242188 23.46875 L 42.242188 22.242188 L 37.074219 22.242188 C 36.332031 22.242188 35.941406 22.289062 35.589844 22.394531 C 34.488281 22.738281 34.011719 23.28125 34.011719 24.226562 L 34.011719 25.300781 C 34.011719 26.128906 34.949219 26.839844 36.523438 27.003906 C 36.703125 27.015625 36.878906 27.027344 37.054688 27.027344 L 38.964844 27.027344 C 39.035156 27.027344 39.105469 27.027344 39.160156 27.039062 C 39.742188 27.085938 39.992188 27.191406 40.167969 27.40625 C 40.277344 27.515625 40.3125 27.617188 40.3125 27.734375 L 40.3125 28.808594 C 40.3125 28.9375 40.222656 29.101562 40.046875 29.246094 C 39.886719 29.386719 39.621094 29.480469 39.265625 29.503906 C 39.195312 29.503906 39.144531 29.515625 39.070312 29.515625 L 33.996094 29.515625 Z M 53.648438 28.609375 C 53.648438 29.875 54.585938 30.582031 56.480469 30.722656 C 56.65625 30.738281 56.832031 30.746094 57.007812 30.746094 L 61.804688 30.746094 L 61.804688 29.519531 L 56.972656 29.519531 C 55.894531 29.519531 55.488281 29.246094 55.488281 28.597656 L 55.488281 22.242188 L 53.648438 22.242188 Z M 43.34375 28.675781 L 43.34375 24.292969 C 43.34375 23.183594 44.125 22.507812 45.664062 22.292969 C 45.832031 22.269531 45.996094 22.257812 46.164062 22.257812 L 49.65625 22.257812 C 49.828125 22.257812 50 22.269531 50.167969 22.292969 C 51.710938 22.507812 52.492188 23.183594 52.492188 24.292969 L 52.492188 28.675781 C 52.492188 29.578125 52.160156 30.058594 51.398438 30.375 L 53.210938 32.011719 L 51.074219 32.011719 L 49.605469 30.6875 L 48.128906 30.78125 L 46.164062 30.78125 C 45.824219 30.78125 45.472656 30.734375 45.082031 30.628906 C 43.90625 30.308594 43.34375 29.691406 43.34375 28.675781 Z M 45.328125 28.566406 C 45.328125 28.625 45.347656 28.683594 45.363281 28.753906 C 45.472656 29.261719 45.949219 29.546875 46.675781 29.546875 L 48.347656 29.546875 L 46.808594 28.160156 L 48.945312 28.160156 L 50.28125 29.371094 C 50.53125 29.238281 50.691406 29.035156 50.746094 28.777344 C 50.765625 28.71875 50.765625 28.660156 50.765625 28.601562 L 50.765625 24.402344 C 50.765625 24.355469 50.765625 24.292969 50.746094 24.234375 C 50.636719 23.761719 50.160156 23.488281 49.453125 23.488281 L 46.679688 23.488281 C 45.859375 23.488281 45.332031 23.84375 45.332031 24.402344 L 45.332031 28.566406 Z M 45.328125 28.566406 " fill-opacity="1" fill-rule="nonzero"/><g clip-path="url(#607280bc6c)"><path fill="#00618a" d="M 63.421875 20.203125 C 62.292969 20.175781 61.425781 20.28125 60.6875 20.589844 C 60.476562 20.679688 60.144531 20.683594 60.109375 20.945312 C 60.226562 21.066406 60.242188 21.246094 60.335938 21.394531 C 60.511719 21.683594 60.808594 22.066406 61.074219 22.265625 C 61.363281 22.484375 61.664062 22.71875 61.976562 22.910156 C 62.527344 23.25 63.148438 23.441406 63.679688 23.78125 C 63.992188 23.980469 64.304688 24.230469 64.613281 24.457031 C 64.765625 24.566406 64.867188 24.742188 65.0625 24.808594 L 65.0625 24.777344 C 64.957031 24.644531 64.933594 24.464844 64.835938 24.328125 L 64.417969 23.910156 C 64.011719 23.363281 63.492188 22.886719 62.941406 22.492188 C 62.5 22.175781 61.515625 21.75 61.332031 21.234375 L 61.300781 21.203125 C 61.609375 21.167969 61.976562 21.054688 62.265625 20.976562 C 62.75 20.847656 63.179688 20.882812 63.679688 20.753906 L 64.355469 20.558594 L 64.355469 20.429688 C 64.101562 20.171875 63.921875 19.828125 63.648438 19.59375 C 62.929688 18.976562 62.140625 18.363281 61.332031 17.851562 C 60.882812 17.570312 60.328125 17.386719 59.851562 17.144531 C 59.691406 17.0625 59.410156 17.019531 59.304688 16.886719 C 59.054688 16.566406 58.921875 16.164062 58.726562 15.792969 C 58.324219 15.015625 57.925781 14.164062 57.570312 13.347656 C 57.324219 12.789062 57.164062 12.238281 56.863281 11.734375 C 55.402344 9.332031 53.828125 7.878906 51.394531 6.453125 C 50.875 6.152344 50.253906 6.03125 49.59375 5.875 L 48.53125 5.808594 C 48.316406 5.71875 48.089844 5.453125 47.886719 5.324219 C 47.082031 4.816406 45.011719 3.707031 44.414062 5.160156 C 44.039062 6.082031 44.980469 6.980469 45.316406 7.449219 C 45.550781 7.777344 45.855469 8.144531 46.023438 8.511719 C 46.132812 8.753906 46.152344 8.996094 46.25 9.253906 C 46.480469 9.882812 46.683594 10.570312 46.988281 11.152344 C 47.140625 11.449219 47.308594 11.757812 47.503906 12.023438 C 47.621094 12.183594 47.824219 12.257812 47.855469 12.507812 C 47.65625 12.785156 47.644531 13.214844 47.535156 13.570312 C 47.03125 15.15625 47.222656 17.128906 47.953125 18.304688 C 48.175781 18.664062 48.707031 19.4375 49.433594 19.140625 C 50.066406 18.882812 49.921875 18.078125 50.109375 17.371094 C 50.148438 17.210938 50.125 17.089844 50.203125 16.984375 L 50.203125 17.015625 L 50.78125 18.175781 C 51.210938 18.867188 51.972656 19.589844 52.617188 20.074219 C 52.949219 20.328125 53.214844 20.765625 53.644531 20.914062 L 53.644531 20.882812 L 53.613281 20.882812 C 53.53125 20.75 53.398438 20.695312 53.292969 20.589844 C 53.039062 20.34375 52.757812 20.039062 52.550781 19.753906 C 51.964844 18.957031 51.449219 18.085938 50.976562 17.175781 C 50.75 16.746094 50.554688 16.265625 50.363281 15.824219 C 50.292969 15.65625 50.292969 15.398438 50.140625 15.308594 C 49.933594 15.632812 49.625 15.894531 49.464844 16.277344 C 49.207031 16.886719 49.171875 17.628906 49.078125 18.402344 C 49.023438 18.421875 49.046875 18.40625 49.015625 18.433594 C 48.566406 18.324219 48.410156 17.863281 48.242188 17.46875 C 47.820312 16.464844 47.742188 14.851562 48.113281 13.699219 C 48.210938 13.402344 48.644531 12.460938 48.46875 12.183594 C 48.382812 11.910156 48.105469 11.75 47.953125 11.539062 C 47.761719 11.28125 47.570312 10.9375 47.4375 10.640625 C 47.09375 9.859375 46.933594 8.980469 46.570312 8.191406 C 46.394531 7.8125 46.101562 7.433594 45.863281 7.097656 C 45.59375 6.726562 45.296875 6.453125 45.089844 6.007812 C 45.015625 5.847656 44.917969 5.589844 45.027344 5.425781 C 45.050781 5.320312 45.113281 5.257812 45.21875 5.234375 C 45.40625 5.089844 45.925781 5.28125 46.121094 5.363281 C 46.636719 5.578125 47.066406 5.78125 47.503906 6.070312 C 47.714844 6.207031 47.925781 6.480469 48.179688 6.554688 L 48.46875 6.554688 C 48.921875 6.660156 49.425781 6.585938 49.851562 6.714844 C 50.597656 6.941406 51.269531 7.296875 51.875 7.679688 C 53.730469 8.855469 55.246094 10.523438 56.28125 12.515625 C 56.449219 12.835938 56.523438 13.140625 56.667969 13.480469 C 56.964844 14.164062 57.339844 14.871094 57.632812 15.542969 C 57.929688 16.210938 58.214844 16.886719 58.628906 17.441406 C 58.847656 17.734375 59.695312 17.894531 60.078125 18.054688 C 60.347656 18.167969 60.789062 18.289062 61.042969 18.441406 C 61.53125 18.734375 62 19.085938 62.457031 19.410156 C 62.6875 19.570312 63.386719 19.921875 63.421875 20.214844 Z M 63.421875 20.203125 " fill-opacity="1" fill-rule="nonzero"/></g><path fill="#00618a" d="M 49.046875 7.933594 C 48.8125 7.929688 48.644531 7.960938 48.46875 7.996094 L 48.46875 8.03125 L 48.5 8.03125 C 48.613281 8.261719 48.8125 8.410156 48.949219 8.609375 L 49.273438 9.285156 L 49.304688 9.253906 C 49.503906 9.113281 49.59375 8.886719 49.59375 8.546875 C 49.511719 8.460938 49.5 8.355469 49.433594 8.253906 C 49.339844 8.121094 49.160156 8.046875 49.046875 7.933594 Z M 49.046875 7.933594 " fill-opacity="1" fill-rule="evenodd"/><g clip-path="url(#726b77f20b)"><path fill="#e48e00" d="M 62.667969 29.484375 C 62.667969 30.296875 63.308594 30.84375 64.027344 30.84375 C 64.742188 30.84375 65.382812 30.296875 65.382812 29.484375 C 65.382812 28.671875 64.742188 28.125 64.027344 28.125 C 63.308594 28.125 62.667969 28.671875 62.667969 29.484375 Z M 65.078125 29.484375 C 65.078125 30.101562 64.609375 30.558594 64.023438 30.558594 C 63.4375 30.558594 62.972656 30.101562 62.972656 29.484375 C 62.972656 28.867188 63.433594 28.410156 64.023438 28.410156 C 64.605469 28.410156 65.078125 28.867188 65.078125 29.484375 Z M 64.390625 30.257812 L 64.695312 30.257812 L 64.25 29.578125 C 64.488281 29.554688 64.667969 29.4375 64.667969 29.15625 C 64.667969 28.839844 64.46875 28.710938 64.085938 28.710938 L 63.484375 28.710938 L 63.484375 30.261719 L 63.742188 30.261719 L 63.742188 29.589844 L 63.984375 29.589844 L 64.390625 30.261719 Z M 63.742188 29.371094 L 63.742188 28.925781 L 64.042969 28.925781 C 64.199219 28.925781 64.386719 28.957031 64.386719 29.136719 C 64.386719 29.355469 64.214844 29.371094 64.019531 29.371094 Z M 63.742188 29.371094 " fill-opacity="1" fill-rule="evenodd"/></g></svg>