<svg xmlns="http://www.w3.org/2000/svg" xmlns:xlink="http://www.w3.org/1999/xlink" width="100" zoomAndPan="magnify" viewBox="0 0 75 37.5" height="50" preserveAspectRatio="xMidYMid meet" version="1.0"><defs><clipPath id="156f83b4e8"><path d="M 17.914062 6.679688 L 57.140625 6.679688 L 57.140625 30.363281 L 17.914062 30.363281 Z M 17.914062 6.679688 " clip-rule="nonzero"/></clipPath></defs><g clip-path="url(#156f83b4e8)"><path fill="#000000" d="M 27.171875 12.855469 L 34.570312 12.855469 L 34.570312 13.445312 L 27.847656 13.445312 L 27.847656 17.875 L 34.167969 17.875 L 34.167969 18.460938 L 27.847656 18.460938 L 27.847656 23.324219 L 34.644531 23.324219 L 34.644531 23.910156 L 27.171875 23.910156 Z M 35.230469 12.855469 L 36.019531 12.855469 L 39.5 17.71875 L 43.0625 12.855469 L 47.90625 6.683594 L 39.949219 18.230469 L 44.050781 23.910156 L 43.230469 23.910156 L 39.5 18.738281 L 35.757812 23.910156 L 34.953125 23.910156 L 39.085938 18.230469 Z M 44.339844 13.445312 L 44.339844 12.855469 L 52.773438 12.855469 L 52.773438 13.445312 L 48.890625 13.445312 L 48.890625 23.910156 L 48.210938 23.910156 L 48.210938 13.445312 Z M 17.914062 12.855469 L 18.761719 12.855469 L 30.453125 30.359375 L 25.621094 23.910156 L 18.625 13.695312 L 18.59375 23.910156 L 17.914062 23.910156 Z M 52.703125 23.144531 C 52.566406 23.144531 52.460938 23.039062 52.460938 22.898438 C 52.460938 22.761719 52.566406 22.652344 52.703125 22.652344 C 52.84375 22.652344 52.945312 22.761719 52.945312 22.898438 C 52.945312 23.039062 52.84375 23.144531 52.703125 23.144531 Z M 53.371094 22.496094 L 53.734375 22.496094 C 53.738281 22.695312 53.882812 22.828125 54.09375 22.828125 C 54.328125 22.828125 54.460938 22.683594 54.460938 22.417969 L 54.460938 20.734375 L 54.832031 20.734375 L 54.832031 22.421875 C 54.832031 22.898438 54.554688 23.175781 54.097656 23.175781 C 53.667969 23.175781 53.371094 22.90625 53.371094 22.496094 Z M 55.316406 22.476562 L 55.683594 22.476562 C 55.710938 22.703125 55.933594 22.847656 56.253906 22.847656 C 56.550781 22.847656 56.765625 22.691406 56.765625 22.480469 C 56.765625 22.300781 56.628906 22.191406 56.3125 22.117188 L 56.007812 22.042969 C 55.578125 21.941406 55.378906 21.734375 55.378906 21.382812 C 55.378906 20.957031 55.726562 20.675781 56.246094 20.675781 C 56.730469 20.675781 57.082031 20.957031 57.101562 21.359375 L 56.742188 21.359375 C 56.710938 21.140625 56.519531 21.003906 56.242188 21.003906 C 55.949219 21.003906 55.753906 21.144531 55.753906 21.359375 C 55.753906 21.527344 55.878906 21.625 56.191406 21.699219 L 56.453125 21.761719 C 56.941406 21.875 57.140625 22.074219 57.140625 22.433594 C 57.140625 22.890625 56.789062 23.175781 56.226562 23.175781 C 55.695312 23.175781 55.34375 22.902344 55.316406 22.476562 Z M 55.316406 22.476562 " fill-opacity="1" fill-rule="nonzero"/></g></svg>