<svg xmlns="http://www.w3.org/2000/svg" xmlns:xlink="http://www.w3.org/1999/xlink" width="100" zoomAndPan="magnify" viewBox="0 0 75 37.5" height="50" preserveAspectRatio="xMidYMid meet" version="1.0"><defs><clipPath id="db3f418c57"><path d="M 55 16 L 63.800781 16 L 63.800781 25.765625 L 55 25.765625 Z M 55 16 " clip-rule="nonzero"/></clipPath><clipPath id="1f0b78826d"><path d="M 11.25 11 L 53 11 L 53 25.765625 L 11.25 25.765625 Z M 11.25 11 " clip-rule="nonzero"/></clipPath><clipPath id="660f722678"><path d="M 22 16 L 50 16 L 50 25.765625 L 22 25.765625 Z M 22 16 " clip-rule="nonzero"/></clipPath></defs><g clip-path="url(#db3f418c57)"><path fill="#83cd29" d="M 59.59375 16.226562 C 59.46875 16.226562 59.34375 16.253906 59.234375 16.316406 L 55.75 18.289062 C 55.523438 18.414062 55.386719 18.65625 55.386719 18.910156 L 55.386719 22.851562 C 55.386719 23.105469 55.523438 23.347656 55.75 23.472656 L 56.660156 23.988281 C 57.101562 24.203125 57.265625 24.199219 57.464844 24.199219 C 58.121094 24.199219 58.492188 23.808594 58.492188 23.132812 L 58.492188 19.246094 C 58.492188 19.191406 58.445312 19.152344 58.390625 19.152344 L 57.953125 19.152344 C 57.898438 19.152344 57.847656 19.191406 57.847656 19.246094 L 57.847656 23.132812 C 57.847656 23.433594 57.53125 23.734375 57.015625 23.480469 L 56.066406 22.9375 C 56.035156 22.921875 56.007812 22.886719 56.007812 22.851562 L 56.007812 18.914062 C 56.007812 18.875 56.035156 18.835938 56.066406 18.816406 L 59.542969 16.851562 C 59.578125 16.835938 59.617188 16.835938 59.648438 16.851562 L 63.125 18.816406 C 63.15625 18.835938 63.183594 18.875 63.183594 18.914062 L 63.183594 22.851562 C 63.183594 22.890625 63.164062 22.925781 63.132812 22.945312 L 59.648438 24.910156 C 59.617188 24.929688 59.578125 24.929688 59.542969 24.910156 L 58.648438 24.390625 C 58.621094 24.375 58.585938 24.375 58.5625 24.390625 C 58.3125 24.527344 58.265625 24.542969 58.035156 24.621094 C 57.980469 24.640625 57.890625 24.671875 58.066406 24.765625 L 59.234375 25.441406 C 59.34375 25.503906 59.46875 25.535156 59.597656 25.535156 C 59.726562 25.535156 59.847656 25.503906 59.960938 25.441406 L 63.441406 23.476562 C 63.667969 23.347656 63.804688 23.109375 63.804688 22.851562 L 63.804688 18.914062 C 63.804688 18.65625 63.667969 18.417969 63.441406 18.289062 L 59.960938 16.316406 C 59.851562 16.253906 59.726562 16.230469 59.597656 16.230469 Z M 60.527344 19.042969 C 59.535156 19.042969 58.945312 19.457031 58.945312 20.144531 C 58.945312 20.890625 59.53125 21.097656 60.484375 21.1875 C 61.621094 21.296875 61.710938 21.460938 61.710938 21.683594 C 61.710938 22.0625 61.402344 22.226562 60.667969 22.226562 C 59.746094 22.226562 59.542969 22 59.476562 21.550781 C 59.46875 21.503906 59.429688 21.464844 59.382812 21.464844 L 58.929688 21.464844 C 58.859375 21.464844 58.828125 21.5 58.824219 21.566406 C 58.824219 22.140625 59.144531 22.820312 60.667969 22.820312 C 61.769531 22.820312 62.40625 22.398438 62.40625 21.652344 C 62.40625 20.917969 61.890625 20.71875 60.824219 20.578125 C 59.742188 20.4375 59.640625 20.371094 59.640625 20.121094 C 59.640625 19.917969 59.726562 19.644531 60.527344 19.644531 C 61.242188 19.644531 61.503906 19.792969 61.613281 20.265625 C 61.625 20.3125 61.664062 20.347656 61.710938 20.347656 L 62.164062 20.347656 C 62.191406 20.347656 62.21875 20.332031 62.238281 20.3125 C 62.253906 20.289062 62.269531 20.265625 62.265625 20.238281 C 62.195312 19.425781 61.644531 19.042969 60.527344 19.042969 Z M 60.527344 19.042969 " fill-opacity="1" fill-rule="nonzero"/></g><g clip-path="url(#1f0b78826d)"><path fill="#404137" d="M 39.113281 11.066406 C 39.074219 11.066406 39.035156 11.074219 39 11.09375 C 38.929688 11.136719 38.890625 11.199219 38.890625 11.28125 L 38.890625 16.832031 C 38.890625 16.886719 38.863281 16.933594 38.816406 16.960938 C 38.765625 16.992188 38.710938 16.992188 38.660156 16.960938 L 37.738281 16.441406 C 37.589844 16.355469 37.441406 16.355469 37.292969 16.441406 L 33.601562 18.527344 C 33.464844 18.605469 33.378906 18.757812 33.378906 18.914062 L 33.378906 23.089844 C 33.378906 23.257812 33.453125 23.382812 33.601562 23.46875 L 37.292969 25.558594 C 37.441406 25.640625 37.589844 25.640625 37.738281 25.558594 L 41.429688 23.46875 C 41.574219 23.382812 41.648438 23.257812 41.648438 23.089844 L 41.648438 12.675781 C 41.648438 12.515625 41.5625 12.367188 41.421875 12.289062 L 39.222656 11.085938 C 39.1875 11.066406 39.152344 11.0625 39.113281 11.066406 Z M 15.367188 16.28125 C 15.296875 16.28125 15.230469 16.292969 15.167969 16.332031 L 11.476562 18.417969 C 11.328125 18.503906 11.253906 18.628906 11.253906 18.796875 L 11.261719 24.402344 C 11.261719 24.480469 11.304688 24.554688 11.371094 24.59375 C 11.441406 24.632812 11.527344 24.632812 11.59375 24.59375 L 13.785156 23.359375 C 13.921875 23.277344 14.011719 23.136719 14.011719 22.980469 L 14.011719 20.363281 C 14.011719 20.207031 14.097656 20.0625 14.234375 19.988281 L 15.167969 19.457031 C 15.238281 19.417969 15.308594 19.398438 15.390625 19.398438 C 15.46875 19.398438 15.542969 19.417969 15.613281 19.457031 L 16.542969 19.984375 C 16.679688 20.0625 16.765625 20.207031 16.765625 20.363281 L 16.765625 22.980469 C 16.765625 23.136719 16.859375 23.277344 16.996094 23.359375 L 19.183594 24.589844 C 19.253906 24.632812 19.335938 24.632812 19.40625 24.589844 C 19.472656 24.554688 19.515625 24.480469 19.515625 24.402344 L 19.523438 18.796875 C 19.523438 18.628906 19.453125 18.503906 19.300781 18.417969 L 15.609375 16.332031 C 15.550781 16.296875 15.484375 16.28125 15.410156 16.28125 Z M 48.535156 16.332031 C 48.457031 16.332031 48.382812 16.351562 48.3125 16.390625 L 44.621094 18.476562 C 44.484375 18.554688 44.402344 18.699219 44.402344 18.855469 L 44.402344 23.03125 C 44.402344 23.191406 44.492188 23.332031 44.628906 23.410156 L 48.292969 25.457031 C 48.425781 25.53125 48.589844 25.539062 48.726562 25.464844 L 50.945312 24.25 C 51.019531 24.214844 51.066406 24.140625 51.066406 24.0625 C 51.066406 23.984375 51.023438 23.914062 50.953125 23.875 L 47.242188 21.785156 C 47.171875 21.746094 47.121094 21.667969 47.121094 21.589844 L 47.121094 20.285156 C 47.121094 20.207031 47.171875 20.132812 47.242188 20.09375 L 48.394531 19.441406 C 48.464844 19.402344 48.546875 19.402344 48.617188 19.441406 L 49.773438 20.09375 C 49.847656 20.136719 49.882812 20.199219 49.882812 20.285156 L 49.882812 21.3125 C 49.882812 21.398438 49.921875 21.460938 49.996094 21.503906 C 50.066406 21.542969 50.148438 21.542969 50.21875 21.503906 L 52.429688 20.238281 C 52.566406 20.160156 52.652344 20.019531 52.652344 19.863281 L 52.652344 18.855469 C 52.652344 18.6875 52.578125 18.5625 52.429688 18.476562 L 48.761719 16.390625 C 48.691406 16.351562 48.617188 16.332031 48.539062 16.332031 Z M 37.5 19.449219 C 37.519531 19.449219 37.539062 19.453125 37.558594 19.464844 L 38.824219 20.183594 C 38.859375 20.203125 38.882812 20.238281 38.882812 20.277344 L 38.882812 21.710938 C 38.882812 21.75 38.859375 21.789062 38.824219 21.808594 L 37.558594 22.523438 C 37.523438 22.542969 37.480469 22.542969 37.449219 22.523438 L 36.183594 21.808594 C 36.148438 21.789062 36.125 21.75 36.125 21.710938 L 36.125 20.277344 C 36.125 20.238281 36.148438 20.203125 36.183594 20.183594 L 37.449219 19.464844 C 37.464844 19.453125 37.480469 19.449219 37.5 19.449219 Z M 37.5 19.449219 " fill-opacity="1" fill-rule="nonzero"/></g><g clip-path="url(#660f722678)"><path fill="#83cd29" d="M 26.457031 16.308594 C 26.375 16.308594 26.300781 16.328125 26.234375 16.367188 L 22.542969 18.449219 C 22.402344 18.527344 22.320312 18.675781 22.320312 18.832031 L 22.320312 23.011719 C 22.320312 23.179688 22.394531 23.304688 22.542969 23.386719 L 26.234375 25.476562 C 26.382812 25.5625 26.527344 25.5625 26.675781 25.476562 L 30.367188 23.386719 C 30.515625 23.304688 30.589844 23.179688 30.589844 23.011719 L 30.589844 18.832031 C 30.589844 18.675781 30.507812 18.527344 30.367188 18.449219 L 26.675781 16.367188 C 26.609375 16.328125 26.535156 16.308594 26.453125 16.308594 Z M 48.527344 20.039062 C 48.515625 20.039062 48.496094 20.039062 48.484375 20.042969 L 47.773438 20.449219 C 47.746094 20.464844 47.730469 20.492188 47.730469 20.523438 L 47.730469 21.320312 C 47.730469 21.351562 47.746094 21.378906 47.773438 21.394531 L 48.484375 21.792969 C 48.511719 21.808594 48.539062 21.808594 48.566406 21.792969 L 49.277344 21.394531 C 49.300781 21.378906 49.320312 21.351562 49.320312 21.320312 L 49.320312 20.523438 C 49.320312 20.492188 49.300781 20.464844 49.277344 20.449219 L 48.566406 20.042969 C 48.550781 20.035156 48.542969 20.035156 48.527344 20.035156 Z M 48.527344 20.039062 " fill-opacity="1" fill-rule="nonzero"/></g></svg>