<svg xmlns="http://www.w3.org/2000/svg" xmlns:xlink="http://www.w3.org/1999/xlink" width="100" zoomAndPan="magnify" viewBox="0 0 75 37.5" height="50" preserveAspectRatio="xMidYMid meet" version="1.0"><defs><clipPath id="772bcf68e8"><path d="M 9.4375 12.449219 L 24.242188 12.449219 L 24.242188 25.773438 L 9.4375 25.773438 Z M 9.4375 12.449219 " clip-rule="nonzero"/></clipPath></defs><path fill="#00d8ff" d="M 35.328125 24.1875 L 32.320312 19.582031 C 33.839844 19.445312 35.210938 18.328125 35.210938 16.289062 C 35.210938 14.214844 33.757812 12.886719 31.71875 12.886719 L 27.238281 12.886719 L 27.238281 24.179688 L 28.625 24.179688 L 28.625 19.691406 L 30.847656 19.691406 L 33.691406 24.179688 Z M 31.550781 18.464844 L 28.628906 18.464844 L 28.628906 14.148438 L 31.550781 14.148438 C 32.871094 14.148438 33.773438 15.027344 33.773438 16.296875 C 33.773438 17.566406 32.871094 18.464844 31.550781 18.464844 Z M 40.492188 24.390625 C 41.8125 24.390625 42.898438 23.949219 43.703125 23.136719 L 43.101562 22.308594 C 42.464844 22.96875 41.53125 23.339844 40.609375 23.339844 C 38.871094 23.339844 37.800781 22.054688 37.703125 20.511719 L 44.238281 20.511719 L 44.238281 20.191406 C 44.238281 17.738281 42.800781 15.804688 40.359375 15.804688 C 38.050781 15.804688 36.382812 17.71875 36.382812 20.089844 C 36.382812 22.648438 38.101562 24.382812 40.492188 24.382812 Z M 43 19.582031 L 37.703125 19.582031 C 37.769531 18.328125 38.621094 16.855469 40.34375 16.855469 C 42.183594 16.855469 42.984375 18.363281 43 19.582031 Z M 52.5625 24.1875 L 52.5625 18.566406 C 52.5625 16.585938 51.140625 15.804688 49.4375 15.804688 C 48.117188 15.804688 47.078125 16.246094 46.210938 17.160156 L 46.796875 18.039062 C 47.515625 17.261719 48.300781 16.90625 49.269531 16.90625 C 50.441406 16.90625 51.308594 17.53125 51.308594 18.632812 L 51.308594 20.105469 C 50.65625 19.34375 49.738281 18.988281 48.636719 18.988281 C 47.265625 18.988281 45.808594 19.851562 45.808594 21.679688 C 45.808594 23.457031 47.261719 24.390625 48.636719 24.390625 C 49.722656 24.390625 50.640625 24 51.308594 23.253906 L 51.308594 24.183594 Z M 49.085938 23.476562 C 47.917969 23.476562 47.097656 22.730469 47.097656 21.699219 C 47.097656 20.648438 47.917969 19.902344 49.085938 19.902344 C 49.972656 19.902344 50.824219 20.242188 51.308594 20.917969 L 51.308594 22.460938 C 50.824219 23.136719 49.972656 23.476562 49.085938 23.476562 Z M 58.621094 24.390625 C 60.09375 24.390625 60.960938 23.78125 61.582031 22.96875 L 60.746094 22.191406 C 60.210938 22.917969 59.527344 23.253906 58.695312 23.253906 C 56.976562 23.253906 55.90625 21.902344 55.90625 20.089844 C 55.90625 18.277344 56.976562 16.941406 58.695312 16.941406 C 59.53125 16.941406 60.21875 17.261719 60.746094 18.007812 L 61.582031 17.230469 C 60.964844 16.417969 60.09375 15.808594 58.621094 15.808594 C 56.214844 15.808594 54.59375 17.667969 54.59375 20.089844 C 54.59375 22.527344 56.214844 24.382812 58.621094 24.382812 Z M 65.375 24.390625 C 66.109375 24.390625 66.5625 24.167969 66.882812 23.867188 L 66.515625 22.917969 C 66.347656 23.101562 66.019531 23.253906 65.660156 23.253906 C 65.109375 23.253906 64.839844 22.816406 64.839844 22.207031 L 64.839844 17.125 L 66.480469 17.125 L 66.480469 16.007812 L 64.839844 16.007812 L 64.839844 13.773438 L 63.585938 13.773438 L 63.585938 16.007812 L 62.25 16.007812 L 62.25 17.128906 L 63.585938 17.128906 L 63.585938 22.476562 C 63.585938 23.699219 64.191406 24.390625 65.375 24.390625 Z M 65.375 24.390625 " fill-opacity="1" fill-rule="evenodd"/><path fill="#00d8ff" d="M 18.210938 19.222656 C 18.210938 19.398438 18.175781 19.570312 18.109375 19.734375 C 18.039062 19.894531 17.945312 20.039062 17.820312 20.164062 C 17.691406 20.289062 17.550781 20.386719 17.386719 20.453125 C 17.222656 20.523438 17.050781 20.554688 16.875 20.554688 C 16.699219 20.554688 16.527344 20.523438 16.363281 20.453125 C 16.199219 20.386719 16.054688 20.289062 15.929688 20.164062 C 15.804688 20.039062 15.710938 19.894531 15.640625 19.734375 C 15.574219 19.570312 15.539062 19.398438 15.539062 19.222656 C 15.539062 19.042969 15.574219 18.875 15.640625 18.710938 C 15.710938 18.546875 15.804688 18.402344 15.929688 18.277344 C 16.054688 18.152344 16.199219 18.054688 16.363281 17.988281 C 16.527344 17.921875 16.699219 17.886719 16.875 17.886719 C 17.050781 17.886719 17.222656 17.921875 17.386719 17.988281 C 17.550781 18.054688 17.691406 18.152344 17.820312 18.277344 C 17.945312 18.402344 18.039062 18.546875 18.109375 18.710938 C 18.175781 18.875 18.210938 19.042969 18.210938 19.222656 Z M 18.210938 19.222656 " fill-opacity="1" fill-rule="nonzero"/><path fill="#00d8ff" d="M 16.875 20.746094 C 16.035156 20.746094 15.347656 20.0625 15.347656 19.222656 C 15.347656 18.378906 16.035156 17.695312 16.875 17.695312 C 17.714844 17.695312 18.398438 18.378906 18.398438 19.222656 C 18.398438 20.0625 17.714844 20.746094 16.875 20.746094 Z M 16.875 18.078125 C 16.242188 18.078125 15.730469 18.589844 15.730469 19.222656 C 15.730469 19.851562 16.242188 20.367188 16.875 20.367188 C 17.503906 20.367188 18.019531 19.851562 18.019531 19.222656 C 18.019531 18.589844 17.503906 18.078125 16.875 18.078125 Z M 16.875 18.078125 " fill-opacity="1" fill-rule="nonzero"/><g clip-path="url(#772bcf68e8)"><path fill="#00d8ff" d="M 24.214844 19.222656 C 24.214844 18.195312 22.980469 17.308594 21.066406 16.78125 C 21.558594 14.855469 21.40625 13.34375 20.527344 12.828125 C 20.179688 12.625 19.757812 12.589844 19.277344 12.71875 C 18.546875 12.914062 17.714844 13.484375 16.875 14.320312 C 16.035156 13.484375 15.203125 12.914062 14.472656 12.71875 C 13.992188 12.589844 13.570312 12.625 13.222656 12.828125 C 12.34375 13.34375 12.191406 14.855469 12.683594 16.78125 C 10.769531 17.308594 9.535156 18.195312 9.535156 19.222656 C 9.535156 20.246094 10.769531 21.132812 12.683594 21.660156 C 12.191406 23.585938 12.34375 25.101562 13.222656 25.613281 C 13.433594 25.738281 13.675781 25.800781 13.9375 25.800781 C 14.105469 25.800781 14.285156 25.773438 14.472656 25.726562 C 15.203125 25.53125 16.035156 24.960938 16.875 24.125 C 17.714844 24.960938 18.546875 25.53125 19.277344 25.726562 C 19.464844 25.773438 19.640625 25.800781 19.8125 25.800781 C 20.074219 25.800781 20.316406 25.738281 20.527344 25.613281 C 21.40625 25.101562 21.558594 23.585938 21.066406 21.660156 C 22.980469 21.132812 24.214844 20.246094 24.214844 19.222656 Z M 19.421875 13.269531 C 19.5625 13.234375 19.691406 13.214844 19.808594 13.214844 C 19.972656 13.214844 20.117188 13.25 20.238281 13.324219 C 20.828125 13.667969 20.949219 14.929688 20.507812 16.644531 C 19.902344 16.507812 19.242188 16.402344 18.542969 16.339844 C 18.132812 15.746094 17.703125 15.207031 17.269531 14.734375 C 18.039062 13.964844 18.789062 13.441406 19.421875 13.269531 Z M 18.925781 20.421875 C 18.699219 20.816406 18.464844 21.195312 18.222656 21.554688 C 17.789062 21.585938 17.339844 21.605469 16.875 21.605469 C 16.410156 21.605469 15.960938 21.585938 15.527344 21.554688 C 15.285156 21.195312 15.050781 20.816406 14.824219 20.421875 C 14.589844 20.015625 14.382812 19.613281 14.195312 19.222656 C 14.382812 18.828125 14.589844 18.429688 14.824219 18.019531 C 15.050781 17.625 15.285156 17.25 15.527344 16.886719 C 15.960938 16.855469 16.410156 16.839844 16.875 16.839844 C 17.339844 16.839844 17.789062 16.855469 18.222656 16.886719 C 18.464844 17.25 18.699219 17.625 18.925781 18.019531 C 19.15625 18.429688 19.367188 18.828125 19.554688 19.222656 C 19.367188 19.613281 19.15625 20.015625 18.925781 20.421875 Z M 19.855469 19.898438 C 20.054688 20.367188 20.21875 20.820312 20.351562 21.246094 C 19.917969 21.34375 19.449219 21.425781 18.949219 21.484375 C 19.109375 21.230469 19.269531 20.972656 19.421875 20.707031 C 19.578125 20.433594 19.722656 20.164062 19.855469 19.898438 Z M 16.875 23.292969 C 16.5625 22.949219 16.25 22.566406 15.945312 22.152344 C 16.25 22.167969 16.558594 22.175781 16.875 22.175781 C 17.191406 22.175781 17.5 22.167969 17.800781 22.152344 C 17.496094 22.566406 17.1875 22.949219 16.875 23.292969 Z M 14.796875 21.484375 C 14.296875 21.425781 13.832031 21.34375 13.394531 21.246094 C 13.527344 20.820312 13.691406 20.367188 13.890625 19.898438 C 14.027344 20.164062 14.171875 20.433594 14.328125 20.707031 C 14.480469 20.972656 14.636719 21.230469 14.796875 21.484375 Z M 13.890625 18.546875 C 13.691406 18.078125 13.527344 17.625 13.398438 17.195312 C 13.832031 17.097656 14.300781 17.019531 14.800781 16.957031 C 14.636719 17.210938 14.480469 17.46875 14.328125 17.738281 C 14.171875 18.007812 14.027344 18.277344 13.890625 18.546875 Z M 16.875 15.148438 C 17.1875 15.496094 17.496094 15.875 17.800781 16.289062 C 17.5 16.273438 17.191406 16.265625 16.875 16.265625 C 16.558594 16.265625 16.25 16.273438 15.945312 16.289062 C 16.25 15.875 16.5625 15.496094 16.875 15.148438 Z M 19.421875 17.738281 C 19.269531 17.46875 19.109375 17.210938 18.949219 16.957031 C 19.449219 17.019531 19.917969 17.097656 20.351562 17.195312 C 20.21875 17.625 20.054688 18.078125 19.859375 18.546875 C 19.722656 18.277344 19.578125 18.007812 19.421875 17.738281 Z M 13.511719 13.324219 C 13.632812 13.25 13.777344 13.214844 13.941406 13.214844 C 14.058594 13.214844 14.1875 13.234375 14.324219 13.269531 C 14.960938 13.441406 15.710938 13.964844 16.476562 14.734375 C 16.046875 15.207031 15.617188 15.746094 15.207031 16.339844 C 14.503906 16.402344 13.84375 16.507812 13.238281 16.640625 C 12.800781 14.929688 12.921875 13.667969 13.511719 13.324219 Z M 10.105469 19.222656 C 10.105469 18.535156 11.136719 17.804688 12.839844 17.332031 C 13.023438 17.9375 13.265625 18.570312 13.566406 19.222656 C 13.265625 19.871094 13.023438 20.507812 12.839844 21.109375 C 11.136719 20.640625 10.105469 19.90625 10.105469 19.222656 Z M 14.324219 25.171875 C 13.996094 25.261719 13.722656 25.242188 13.511719 25.121094 C 12.921875 24.777344 12.800781 23.515625 13.238281 21.800781 C 13.84375 21.9375 14.503906 22.039062 15.207031 22.101562 C 15.617188 22.695312 16.046875 23.238281 16.476562 23.710938 C 15.710938 24.476562 14.960938 25.003906 14.324219 25.171875 Z M 20.238281 25.121094 C 20.027344 25.242188 19.753906 25.261719 19.421875 25.171875 C 18.789062 25.003906 18.039062 24.476562 17.269531 23.710938 C 17.703125 23.238281 18.132812 22.695312 18.542969 22.101562 C 19.242188 22.039062 19.902344 21.9375 20.507812 21.800781 C 20.949219 23.515625 20.828125 24.777344 20.238281 25.121094 Z M 20.910156 21.109375 C 20.726562 20.507812 20.484375 19.871094 20.183594 19.222656 C 20.484375 18.570312 20.726562 17.9375 20.910156 17.332031 C 22.613281 17.804688 23.644531 18.535156 23.644531 19.222656 C 23.644531 19.90625 22.613281 20.640625 20.910156 21.109375 Z M 20.910156 21.109375 " fill-opacity="1" fill-rule="nonzero"/><path fill="#00d8ff" d="M 13.9375 25.894531 C 13.65625 25.894531 13.398438 25.828125 13.175781 25.695312 C 12.292969 25.179688 12.070312 23.738281 12.570312 21.730469 C 10.578125 21.164062 9.4375 20.25 9.4375 19.222656 C 9.4375 18.191406 10.578125 17.28125 12.570312 16.714844 C 12.070312 14.707031 12.292969 13.261719 13.175781 12.746094 C 13.542969 12.53125 13.988281 12.488281 14.5 12.625 C 15.207031 12.816406 16.027344 13.355469 16.875 14.1875 C 17.722656 13.355469 18.542969 12.816406 19.25 12.625 C 19.761719 12.492188 20.207031 12.53125 20.574219 12.746094 C 21.457031 13.261719 21.675781 14.707031 21.179688 16.714844 C 23.171875 17.28125 24.3125 18.191406 24.3125 19.222656 C 24.3125 20.25 23.171875 21.164062 21.179688 21.730469 C 21.675781 23.738281 21.457031 25.179688 20.574219 25.695312 C 20.207031 25.910156 19.757812 25.953125 19.25 25.816406 C 18.542969 25.625 17.722656 25.089844 16.875 24.257812 C 16.027344 25.089844 15.207031 25.625 14.5 25.816406 C 14.304688 25.867188 14.113281 25.894531 13.9375 25.894531 Z M 13.9375 12.738281 C 13.691406 12.738281 13.46875 12.796875 13.269531 12.910156 C 12.464844 13.382812 12.28125 14.820312 12.777344 16.757812 C 12.789062 16.808594 12.757812 16.859375 12.707031 16.875 C 10.78125 17.40625 9.628906 18.28125 9.628906 19.222656 C 9.628906 20.160156 10.78125 21.039062 12.707031 21.570312 C 12.757812 21.582031 12.789062 21.636719 12.777344 21.683594 C 12.28125 23.625 12.464844 25.0625 13.269531 25.53125 C 13.46875 25.644531 13.691406 25.703125 13.9375 25.703125 C 14.097656 25.703125 14.269531 25.679688 14.449219 25.632812 C 15.144531 25.445312 15.960938 24.902344 16.808594 24.054688 C 16.84375 24.019531 16.90625 24.019531 16.941406 24.054688 C 17.789062 24.902344 18.605469 25.445312 19.300781 25.632812 C 19.757812 25.753906 20.15625 25.71875 20.480469 25.53125 C 21.285156 25.0625 21.46875 23.625 20.972656 21.683594 C 20.960938 21.636719 20.992188 21.582031 21.039062 21.570312 C 22.96875 21.039062 24.121094 20.160156 24.121094 19.222656 C 24.121094 18.28125 22.96875 17.40625 21.039062 16.875 C 20.992188 16.859375 20.960938 16.808594 20.972656 16.757812 C 21.46875 14.820312 21.285156 13.382812 20.480469 12.910156 C 20.15625 12.722656 19.757812 12.6875 19.300781 12.8125 C 18.605469 12.996094 17.789062 13.542969 16.941406 14.386719 C 16.90625 14.425781 16.84375 14.425781 16.808594 14.386719 C 15.960938 13.542969 15.144531 12.996094 14.449219 12.8125 C 14.269531 12.761719 14.097656 12.738281 13.9375 12.738281 Z M 19.808594 25.324219 C 19.683594 25.324219 19.546875 25.304688 19.398438 25.265625 C 18.765625 25.09375 18.003906 24.578125 17.203125 23.777344 C 17.167969 23.742188 17.167969 23.683594 17.199219 23.644531 C 17.632812 23.171875 18.058594 22.632812 18.464844 22.046875 C 18.480469 22.023438 18.503906 22.011719 18.535156 22.007812 C 19.222656 21.945312 19.878906 21.84375 20.488281 21.707031 C 20.539062 21.695312 20.589844 21.726562 20.601562 21.777344 C 21.046875 23.515625 20.925781 24.828125 20.285156 25.203125 C 20.148438 25.28125 19.988281 25.324219 19.808594 25.324219 Z M 17.402344 23.707031 C 18.15625 24.449219 18.863281 24.921875 19.449219 25.082031 C 19.753906 25.160156 20.003906 25.148438 20.191406 25.039062 C 20.734375 24.71875 20.832031 23.5 20.4375 21.914062 C 19.863281 22.039062 19.242188 22.132812 18.59375 22.195312 C 18.210938 22.746094 17.808594 23.253906 17.402344 23.707031 Z M 13.941406 25.324219 C 13.761719 25.324219 13.601562 25.28125 13.460938 25.203125 C 12.824219 24.828125 12.703125 23.515625 13.148438 21.777344 C 13.160156 21.726562 13.210938 21.695312 13.261719 21.707031 C 13.867188 21.84375 14.527344 21.945312 15.214844 22.007812 C 15.242188 22.011719 15.269531 22.023438 15.285156 22.046875 C 15.691406 22.632812 16.117188 23.171875 16.546875 23.644531 C 16.582031 23.683594 16.582031 23.742188 16.546875 23.777344 C 15.746094 24.578125 14.984375 25.09375 14.351562 25.265625 C 14.203125 25.304688 14.066406 25.324219 13.941406 25.324219 Z M 13.308594 21.914062 C 12.917969 23.5 13.015625 24.71875 13.558594 25.039062 C 13.746094 25.148438 13.996094 25.160156 14.300781 25.082031 C 14.886719 24.921875 15.59375 24.449219 16.347656 23.707031 C 15.9375 23.253906 15.539062 22.746094 15.152344 22.195312 C 14.507812 22.132812 13.886719 22.039062 13.308594 21.914062 Z M 16.875 23.390625 C 16.847656 23.390625 16.820312 23.378906 16.804688 23.359375 C 16.488281 23.007812 16.171875 22.621094 15.871094 22.210938 C 15.847656 22.179688 15.847656 22.140625 15.863281 22.109375 C 15.878906 22.074219 15.914062 22.054688 15.953125 22.058594 C 16.582031 22.089844 17.167969 22.089844 17.796875 22.058594 C 17.835938 22.054688 17.867188 22.074219 17.886719 22.109375 C 17.902344 22.140625 17.902344 22.179688 17.878906 22.210938 C 17.578125 22.621094 17.261719 23.007812 16.945312 23.359375 C 16.925781 23.378906 16.902344 23.390625 16.875 23.390625 Z M 16.144531 22.257812 C 16.382812 22.574219 16.628906 22.871094 16.875 23.152344 C 17.121094 22.871094 17.367188 22.574219 17.605469 22.257812 C 17.105469 22.277344 16.640625 22.277344 16.144531 22.257812 Z M 16.875 21.699219 C 16.421875 21.699219 15.96875 21.683594 15.519531 21.648438 C 15.492188 21.648438 15.464844 21.632812 15.449219 21.609375 C 15.195312 21.230469 14.957031 20.847656 14.742188 20.46875 C 14.515625 20.074219 14.304688 19.667969 14.109375 19.261719 C 14.097656 19.238281 14.097656 19.207031 14.109375 19.179688 C 14.304688 18.773438 14.515625 18.367188 14.742188 17.972656 C 14.957031 17.597656 15.195312 17.214844 15.449219 16.835938 C 15.464844 16.8125 15.492188 16.796875 15.519531 16.792969 C 16.414062 16.726562 17.335938 16.726562 18.226562 16.792969 C 18.257812 16.796875 18.285156 16.808594 18.300781 16.835938 C 18.554688 17.214844 18.792969 17.597656 19.007812 17.972656 C 19.234375 18.367188 19.445312 18.773438 19.640625 19.179688 C 19.652344 19.207031 19.652344 19.238281 19.640625 19.261719 C 19.445312 19.667969 19.234375 20.074219 19.007812 20.46875 C 18.792969 20.847656 18.554688 21.230469 18.300781 21.609375 C 18.285156 21.632812 18.257812 21.648438 18.226562 21.648438 C 17.78125 21.683594 17.328125 21.699219 16.875 21.699219 Z M 15.582031 21.464844 C 16.433594 21.523438 17.3125 21.523438 18.167969 21.464844 C 18.410156 21.101562 18.636719 20.734375 18.84375 20.375 C 19.058594 20 19.261719 19.609375 19.449219 19.222656 C 19.261719 18.832031 19.058594 18.445312 18.84375 18.066406 C 18.636719 17.710938 18.410156 17.34375 18.167969 16.980469 C 17.3125 16.917969 16.433594 16.917969 15.582031 16.980469 C 15.339844 17.34375 15.109375 17.710938 14.90625 18.066406 C 14.691406 18.445312 14.488281 18.832031 14.300781 19.222656 C 14.488281 19.609375 14.691406 20 14.90625 20.375 C 15.113281 20.734375 15.339844 21.101562 15.582031 21.464844 Z M 18.949219 21.582031 C 18.917969 21.582031 18.886719 21.5625 18.871094 21.535156 C 18.851562 21.503906 18.851562 21.464844 18.871094 21.433594 C 19.046875 21.15625 19.199219 20.902344 19.339844 20.660156 C 19.484375 20.402344 19.628906 20.132812 19.773438 19.855469 C 19.789062 19.820312 19.824219 19.800781 19.859375 19.800781 C 19.898438 19.804688 19.929688 19.828125 19.945312 19.859375 C 20.140625 20.316406 20.304688 20.777344 20.445312 21.21875 C 20.453125 21.246094 20.449219 21.273438 20.433594 21.296875 C 20.421875 21.320312 20.398438 21.335938 20.375 21.339844 C 19.925781 21.441406 19.449219 21.523438 18.960938 21.578125 C 18.957031 21.582031 18.953125 21.582031 18.949219 21.582031 Z M 19.847656 20.125 C 19.734375 20.339844 19.621094 20.550781 19.503906 20.753906 C 19.394531 20.949219 19.273438 21.148438 19.140625 21.363281 C 19.515625 21.316406 19.878906 21.253906 20.230469 21.175781 C 20.121094 20.832031 19.992188 20.476562 19.847656 20.125 Z M 14.796875 21.582031 C 14.792969 21.582031 14.789062 21.582031 14.789062 21.578125 C 14.300781 21.519531 13.824219 21.441406 13.375 21.339844 C 13.351562 21.335938 13.328125 21.320312 13.3125 21.296875 C 13.300781 21.273438 13.296875 21.246094 13.304688 21.21875 C 13.441406 20.773438 13.609375 20.316406 13.804688 19.859375 C 13.820312 19.828125 13.851562 19.804688 13.886719 19.800781 C 13.921875 19.800781 13.960938 19.820312 13.976562 19.855469 C 14.117188 20.132812 14.265625 20.402344 14.410156 20.660156 C 14.550781 20.902344 14.703125 21.15625 14.878906 21.433594 C 14.898438 21.464844 14.898438 21.503906 14.878906 21.535156 C 14.863281 21.5625 14.832031 21.582031 14.796875 21.582031 Z M 13.519531 21.175781 C 13.867188 21.253906 14.234375 21.316406 14.609375 21.363281 C 14.476562 21.148438 14.355469 20.949219 14.246094 20.753906 C 14.128906 20.550781 14.015625 20.339844 13.902344 20.125 C 13.757812 20.476562 13.628906 20.832031 13.519531 21.175781 Z M 20.910156 21.203125 C 20.867188 21.203125 20.832031 21.179688 20.820312 21.136719 C 20.632812 20.53125 20.390625 19.898438 20.097656 19.261719 C 20.085938 19.238281 20.085938 19.207031 20.097656 19.183594 C 20.390625 18.542969 20.632812 17.914062 20.820312 17.304688 C 20.835938 17.257812 20.886719 17.230469 20.9375 17.242188 C 22.664062 17.71875 23.738281 18.476562 23.738281 19.222656 C 23.738281 19.964844 22.664062 20.726562 20.933594 21.203125 C 20.925781 21.203125 20.917969 21.203125 20.910156 21.203125 Z M 20.289062 19.222656 C 20.5625 19.824219 20.792969 20.417969 20.972656 20.992188 C 22.539062 20.546875 23.546875 19.855469 23.546875 19.222656 C 23.546875 18.589844 22.539062 17.898438 20.972656 17.449219 C 20.792969 18.023438 20.5625 18.621094 20.289062 19.222656 Z M 12.839844 21.203125 C 12.832031 21.203125 12.824219 21.203125 12.8125 21.203125 C 11.085938 20.726562 10.011719 19.964844 10.011719 19.222656 C 10.011719 18.476562 11.085938 17.71875 12.8125 17.242188 C 12.863281 17.230469 12.914062 17.257812 12.929688 17.304688 C 13.117188 17.914062 13.359375 18.542969 13.652344 19.183594 C 13.664062 19.207031 13.664062 19.234375 13.652344 19.261719 C 13.359375 19.898438 13.117188 20.53125 12.929688 21.136719 C 12.917969 21.179688 12.878906 21.203125 12.839844 21.203125 Z M 12.777344 17.449219 C 11.207031 17.898438 10.203125 18.589844 10.203125 19.222656 C 10.203125 19.855469 11.207031 20.546875 12.777344 20.992188 C 12.957031 20.417969 13.1875 19.824219 13.460938 19.222656 C 13.1875 18.621094 12.957031 18.023438 12.777344 17.449219 Z M 19.859375 18.640625 C 19.820312 18.640625 19.789062 18.621094 19.773438 18.589844 C 19.628906 18.304688 19.488281 18.042969 19.339844 17.785156 C 19.199219 17.542969 19.046875 17.289062 18.871094 17.007812 C 18.851562 16.976562 18.851562 16.9375 18.871094 16.90625 C 18.890625 16.875 18.925781 16.859375 18.960938 16.863281 C 19.449219 16.921875 19.925781 17.003906 20.375 17.101562 C 20.398438 17.109375 20.421875 17.125 20.433594 17.148438 C 20.449219 17.171875 20.453125 17.199219 20.445312 17.222656 C 20.304688 17.667969 20.140625 18.125 19.945312 18.582031 C 19.929688 18.617188 19.898438 18.640625 19.859375 18.640625 Z M 19.503906 17.691406 C 19.621094 17.894531 19.734375 18.101562 19.847656 18.320312 C 19.992188 17.964844 20.121094 17.613281 20.230469 17.265625 C 19.878906 17.191406 19.515625 17.128906 19.136719 17.078125 C 19.273438 17.292969 19.394531 17.496094 19.503906 17.691406 Z M 13.890625 18.640625 C 13.890625 18.640625 13.890625 18.640625 13.886719 18.640625 C 13.851562 18.640625 13.816406 18.617188 13.804688 18.582031 C 13.609375 18.125 13.441406 17.667969 13.304688 17.222656 C 13.296875 17.199219 13.300781 17.171875 13.3125 17.148438 C 13.328125 17.125 13.351562 17.109375 13.375 17.101562 C 13.824219 17.003906 14.296875 16.921875 14.789062 16.863281 C 14.824219 16.859375 14.859375 16.875 14.878906 16.90625 C 14.898438 16.9375 14.898438 16.980469 14.878906 17.007812 C 14.703125 17.289062 14.546875 17.542969 14.410156 17.785156 C 14.261719 18.042969 14.121094 18.304688 13.976562 18.589844 C 13.960938 18.621094 13.925781 18.640625 13.890625 18.640625 Z M 13.519531 17.265625 C 13.628906 17.613281 13.757812 17.964844 13.902344 18.320312 C 14.015625 18.101562 14.128906 17.894531 14.246094 17.691406 C 14.355469 17.496094 14.476562 17.292969 14.609375 17.078125 C 14.234375 17.128906 13.867188 17.191406 13.519531 17.265625 Z M 20.507812 16.738281 C 20.503906 16.738281 20.496094 16.738281 20.488281 16.734375 C 19.878906 16.597656 19.222656 16.496094 18.535156 16.4375 C 18.507812 16.433594 18.480469 16.417969 18.464844 16.394531 C 18.058594 15.808594 17.632812 15.269531 17.199219 14.796875 C 17.167969 14.761719 17.167969 14.703125 17.203125 14.667969 C 18.003906 13.863281 18.765625 13.347656 19.398438 13.179688 C 19.753906 13.082031 20.054688 13.105469 20.285156 13.242188 C 20.925781 13.613281 21.046875 14.925781 20.601562 16.667969 C 20.589844 16.710938 20.550781 16.738281 20.507812 16.738281 Z M 18.59375 16.25 C 19.242188 16.308594 19.863281 16.402344 20.4375 16.53125 C 20.832031 14.945312 20.734375 13.722656 20.191406 13.40625 C 20.003906 13.296875 19.753906 13.28125 19.449219 13.363281 C 18.863281 13.519531 18.15625 13.996094 17.402344 14.738281 C 17.808594 15.191406 18.210938 15.699219 18.59375 16.25 Z M 13.238281 16.738281 C 13.195312 16.738281 13.160156 16.710938 13.148438 16.667969 C 12.703125 14.925781 12.824219 13.613281 13.460938 13.242188 C 13.695312 13.105469 13.996094 13.082031 14.351562 13.179688 C 14.984375 13.347656 15.746094 13.863281 16.546875 14.667969 C 16.582031 14.703125 16.582031 14.761719 16.546875 14.796875 C 16.117188 15.269531 15.691406 15.808594 15.285156 16.394531 C 15.269531 16.417969 15.242188 16.433594 15.214844 16.4375 C 14.527344 16.496094 13.867188 16.597656 13.261719 16.734375 C 13.253906 16.738281 13.246094 16.738281 13.238281 16.738281 Z M 13.558594 13.40625 C 13.015625 13.722656 12.917969 14.945312 13.308594 16.53125 C 13.886719 16.402344 14.507812 16.308594 15.152344 16.25 C 15.539062 15.699219 15.9375 15.191406 16.347656 14.738281 C 15.59375 13.996094 14.886719 13.519531 14.300781 13.363281 C 13.996094 13.28125 13.746094 13.296875 13.558594 13.40625 Z M 17.800781 16.386719 C 17.800781 16.386719 17.800781 16.386719 17.796875 16.386719 C 17.167969 16.355469 16.582031 16.355469 15.953125 16.386719 C 15.914062 16.386719 15.878906 16.367188 15.863281 16.335938 C 15.847656 16.300781 15.847656 16.261719 15.871094 16.234375 C 16.171875 15.824219 16.488281 15.4375 16.804688 15.085938 C 16.839844 15.046875 16.910156 15.046875 16.945312 15.085938 C 17.261719 15.4375 17.578125 15.820312 17.878906 16.234375 C 17.902344 16.261719 17.902344 16.300781 17.886719 16.335938 C 17.871094 16.367188 17.835938 16.386719 17.800781 16.386719 Z M 16.875 16.171875 C 17.113281 16.171875 17.355469 16.175781 17.605469 16.1875 C 17.367188 15.871094 17.121094 15.570312 16.875 15.292969 C 16.628906 15.570312 16.382812 15.871094 16.144531 16.1875 C 16.394531 16.175781 16.636719 16.171875 16.875 16.171875 Z M 16.875 16.171875 " fill-opacity="1" fill-rule="nonzero"/></g></svg>