<svg xmlns="http://www.w3.org/2000/svg" xmlns:xlink="http://www.w3.org/1999/xlink" width="100" zoomAndPan="magnify" viewBox="0 0 75 37.5" height="50" preserveAspectRatio="xMidYMid meet" version="1.0"><defs><clipPath id="454586a152"><path d="M 19 4 L 55.886719 4 L 55.886719 33 L 19 33 Z M 19 4 " clip-rule="nonzero"/></clipPath></defs><g clip-path="url(#454586a152)"><path fill="#f06292" d="M 50.679688 20.777344 C 49.394531 20.785156 48.28125 21.09375 47.351562 21.558594 C 47.007812 20.871094 46.664062 20.269531 46.605469 19.820312 C 46.539062 19.300781 46.460938 18.988281 46.542969 18.363281 C 46.625 17.742188 46.980469 16.859375 46.976562 16.792969 C 46.972656 16.726562 46.898438 16.410156 46.15625 16.402344 C 45.414062 16.398438 44.78125 16.546875 44.707031 16.742188 C 44.632812 16.941406 44.488281 17.382812 44.402344 17.84375 C 44.269531 18.519531 42.921875 20.933594 42.15625 22.195312 C 41.90625 21.699219 41.691406 21.265625 41.648438 20.925781 C 41.578125 20.402344 41.5 20.089844 41.582031 19.464844 C 41.664062 18.84375 42.023438 17.960938 42.019531 17.894531 C 42.011719 17.828125 41.9375 17.511719 41.195312 17.503906 C 40.457031 17.5 39.820312 17.648438 39.746094 17.84375 C 39.671875 18.042969 39.59375 18.5 39.441406 18.945312 C 39.289062 19.390625 37.496094 23.414062 37.027344 24.457031 C 36.785156 24.988281 36.578125 25.414062 36.429688 25.707031 C 36.429688 25.707031 36.429688 25.703125 36.429688 25.703125 C 36.429688 25.703125 36.421875 25.722656 36.40625 25.757812 C 36.28125 26.003906 36.207031 26.140625 36.207031 26.140625 C 36.207031 26.140625 36.207031 26.144531 36.207031 26.148438 C 36.109375 26.328125 36 26.5 35.949219 26.5 C 35.910156 26.5 35.835938 26.011719 35.964844 25.347656 C 36.230469 23.953125 36.871094 21.777344 36.867188 21.699219 C 36.863281 21.664062 36.984375 21.28125 36.449219 21.085938 C 35.925781 20.890625 35.738281 21.214844 35.691406 21.214844 C 35.644531 21.214844 35.609375 21.328125 35.609375 21.328125 C 35.609375 21.328125 36.191406 18.878906 34.5 18.878906 C 33.441406 18.878906 31.972656 20.046875 31.25 21.101562 C 30.796875 21.355469 29.820312 21.890625 28.785156 22.460938 C 28.386719 22.683594 27.980469 22.90625 27.59375 23.121094 C 27.570312 23.089844 27.542969 23.0625 27.515625 23.03125 C 25.460938 20.828125 21.664062 19.269531 21.824219 16.304688 C 21.882812 15.226562 22.257812 12.390625 29.121094 8.949219 C 34.742188 6.128906 39.246094 6.902344 40.023438 8.625 C 41.132812 11.082031 37.617188 15.644531 31.777344 16.304688 C 29.554688 16.554688 28.382812 15.6875 28.089844 15.363281 C 27.785156 15.023438 27.738281 15.007812 27.625 15.074219 C 27.4375 15.175781 27.554688 15.476562 27.625 15.65625 C 27.796875 16.113281 28.511719 16.921875 29.734375 17.324219 C 30.804688 17.679688 33.417969 17.875 36.578125 16.644531 C 40.117188 15.269531 42.878906 11.4375 42.066406 8.234375 C 41.242188 4.976562 35.875 3.90625 30.796875 5.722656 C 27.769531 6.804688 24.496094 8.5 22.144531 10.714844 C 19.34375 13.347656 18.898438 15.640625 19.082031 16.597656 C 19.738281 20 24.398438 22.214844 26.261719 23.855469 C 26.171875 23.910156 26.085938 23.957031 26.007812 24 C 25.070312 24.464844 21.519531 26.335938 20.628906 28.3125 C 19.621094 30.554688 20.789062 32.164062 21.5625 32.378906 C 23.960938 33.050781 26.417969 31.84375 27.742188 29.859375 C 29.0625 27.878906 28.902344 25.292969 28.292969 24.117188 C 28.289062 24.101562 28.277344 24.085938 28.273438 24.070312 C 28.511719 23.929688 28.757812 23.78125 29.003906 23.636719 C 29.480469 23.355469 29.945312 23.09375 30.351562 22.871094 C 30.125 23.496094 29.957031 24.246094 29.871094 25.332031 C 29.769531 26.605469 30.289062 28.25 30.96875 28.894531 C 31.265625 29.179688 31.625 29.1875 31.855469 29.1875 C 32.644531 29.1875 33.003906 28.527344 33.398438 27.746094 C 33.886719 26.789062 34.316406 25.671875 34.316406 25.671875 C 34.316406 25.671875 33.777344 28.683594 35.25 28.683594 C 35.789062 28.683594 36.332031 27.984375 36.570312 27.625 C 36.574219 27.628906 36.574219 27.632812 36.574219 27.632812 C 36.574219 27.632812 36.585938 27.609375 36.613281 27.5625 C 36.671875 27.476562 36.703125 27.421875 36.703125 27.421875 C 36.703125 27.421875 36.703125 27.414062 36.703125 27.40625 C 36.921875 27.027344 37.398438 26.167969 38.117188 24.746094 C 39.046875 22.914062 39.9375 20.617188 39.9375 20.617188 C 39.9375 20.617188 40.019531 21.175781 40.292969 22.105469 C 40.453125 22.652344 40.792969 23.257812 41.058594 23.835938 C 40.84375 24.136719 40.710938 24.3125 40.710938 24.3125 C 40.710938 24.3125 40.710938 24.3125 40.714844 24.320312 C 40.542969 24.550781 40.351562 24.796875 40.148438 25.039062 C 39.414062 25.917969 38.542969 26.921875 38.425781 27.210938 C 38.285156 27.554688 38.320312 27.804688 38.585938 28.007812 C 38.78125 28.152344 39.125 28.175781 39.488281 28.152344 C 40.148438 28.109375 40.609375 27.941406 40.839844 27.84375 C 41.195312 27.714844 41.609375 27.515625 42 27.230469 C 42.71875 26.695312 43.152344 25.9375 43.109375 24.925781 C 43.085938 24.371094 42.910156 23.820312 42.6875 23.300781 C 42.753906 23.207031 42.820312 23.113281 42.886719 23.015625 C 44.019531 21.347656 44.898438 19.515625 44.898438 19.515625 C 44.898438 19.515625 44.980469 20.078125 45.253906 21.007812 C 45.390625 21.476562 45.660156 21.988281 45.90625 22.492188 C 44.839844 23.363281 44.179688 24.378906 43.949219 25.042969 C 43.523438 26.269531 43.855469 26.828125 44.480469 26.953125 C 44.761719 27.011719 45.160156 26.878906 45.460938 26.753906 C 45.835938 26.628906 46.285156 26.421875 46.703125 26.109375 C 47.421875 25.578125 48.113281 24.832031 48.070312 23.824219 C 48.054688 23.367188 47.929688 22.910156 47.761719 22.472656 C 48.664062 22.09375 49.835938 21.886719 51.324219 22.058594 C 54.523438 22.433594 55.148438 24.445312 55.027344 25.285156 C 54.910156 26.125 54.238281 26.585938 54.015625 26.726562 C 53.789062 26.867188 53.722656 26.914062 53.738281 27.019531 C 53.769531 27.167969 53.871094 27.164062 54.0625 27.132812 C 54.324219 27.085938 55.742188 26.449219 55.800781 24.894531 C 55.878906 22.925781 54.003906 20.761719 50.679688 20.777344 Z M 26.039062 29.136719 C 24.980469 30.300781 23.5 30.738281 22.867188 30.367188 C 22.183594 29.96875 22.453125 28.257812 23.753906 27.023438 C 24.542969 26.273438 25.566406 25.578125 26.246094 25.152344 C 26.398438 25.058594 26.625 24.921875 26.902344 24.757812 C 26.949219 24.730469 26.972656 24.714844 26.972656 24.714844 C 27.027344 24.683594 27.082031 24.648438 27.136719 24.613281 C 27.609375 26.371094 27.152344 27.917969 26.039062 29.136719 Z M 33.753906 23.859375 C 33.386719 24.765625 32.613281 27.078125 32.144531 26.957031 C 31.738281 26.847656 31.496094 25.089844 32.0625 23.359375 C 32.347656 22.484375 32.960938 21.445312 33.320312 21.039062 C 33.898438 20.390625 34.535156 20.175781 34.6875 20.441406 C 34.886719 20.777344 33.984375 23.292969 33.753906 23.859375 Z M 40.128906 26.921875 C 39.972656 27.003906 39.828125 27.054688 39.761719 27.015625 C 39.710938 26.984375 39.824219 26.875 39.824219 26.875 C 39.824219 26.875 40.621094 26.011719 40.9375 25.621094 C 41.121094 25.390625 41.332031 25.121094 41.5625 24.816406 C 41.5625 24.847656 41.5625 24.878906 41.5625 24.90625 C 41.5625 25.941406 40.570312 26.640625 40.128906 26.921875 Z M 45.035156 25.792969 C 44.917969 25.710938 44.941406 25.441406 45.324219 24.597656 C 45.472656 24.269531 45.816406 23.714844 46.414062 23.183594 C 46.484375 23.402344 46.523438 23.609375 46.523438 23.804688 C 46.515625 25.105469 45.59375 25.59375 45.035156 25.792969 Z M 45.035156 25.792969 " fill-opacity="1" fill-rule="nonzero"/></g></svg>