<svg xmlns="http://www.w3.org/2000/svg" xmlns:xlink="http://www.w3.org/1999/xlink" width="100" zoomAndPan="magnify" viewBox="0 0 75 37.5" height="50" preserveAspectRatio="xMidYMid meet" version="1.0"><defs><g/><clipPath id="2f938f62a5"><path d="M 0.492188 14.007812 L 20.476562 14.007812 L 20.476562 25.851562 L 0.492188 25.851562 Z M 0.492188 14.007812 " clip-rule="nonzero"/></clipPath><clipPath id="1889fd64db"><path d="M 10.484375 14.007812 C 7.820312 14.007812 6.15625 15.324219 5.488281 17.953125 C 6.488281 16.640625 7.652344 16.144531 8.988281 16.476562 C 9.746094 16.664062 10.289062 17.207031 10.890625 17.808594 C 11.871094 18.792969 13.003906 19.929688 15.480469 19.929688 C 18.144531 19.929688 19.8125 18.613281 20.476562 15.980469 C 19.476562 17.296875 18.3125 17.789062 16.980469 17.460938 C 16.21875 17.273438 15.675781 16.730469 15.074219 16.125 C 14.09375 15.144531 12.960938 14.007812 10.484375 14.007812 Z M 5.488281 19.929688 C 2.824219 19.929688 1.160156 21.246094 0.492188 23.875 C 1.492188 22.558594 2.660156 22.066406 3.992188 22.394531 C 4.75 22.582031 5.292969 23.128906 5.894531 23.730469 C 6.875 24.714844 8.007812 25.851562 10.484375 25.851562 C 13.148438 25.851562 14.816406 24.535156 15.480469 21.902344 C 14.480469 23.21875 13.316406 23.710938 11.984375 23.382812 C 11.222656 23.195312 10.679688 22.648438 10.078125 22.046875 C 9.097656 21.066406 7.964844 19.929688 5.488281 19.929688 Z M 5.488281 19.929688 " clip-rule="nonzero"/></clipPath><linearGradient x1="-13.502169" gradientTransform="matrix(0.133224, 0, 0, 0.131579, 0.493421, 14.007613)" y1="23.417481" x2="138.017663" gradientUnits="userSpaceOnUse" y2="110.781532" id="39733b9616"><stop stop-opacity="1" stop-color="rgb(13.299561%, 59.599304%, 74.099731%)" offset="0"/><stop stop-opacity="1" stop-color="rgb(13.294983%, 59.611511%, 74.098206%)" offset="0.0625"/><stop stop-opacity="1" stop-color="rgb(13.25531%, 59.738159%, 74.081421%)" offset="0.0703125"/><stop stop-opacity="1" stop-color="rgb(13.183594%, 59.963989%, 74.052429%)" offset="0.078125"/><stop stop-opacity="1" stop-color="rgb(13.111877%, 60.189819%, 74.024963%)" offset="0.0859375"/><stop stop-opacity="1" stop-color="rgb(13.041687%, 60.414124%, 73.995972%)" offset="0.09375"/><stop stop-opacity="1" stop-color="rgb(12.969971%, 60.639954%, 73.968506%)" offset="0.101562"/><stop stop-opacity="1" stop-color="rgb(12.898254%, 60.865784%, 73.939514%)" offset="0.109375"/><stop stop-opacity="1" stop-color="rgb(12.828064%, 61.091614%, 73.912048%)" offset="0.117187"/><stop stop-opacity="1" stop-color="rgb(12.756348%, 61.317444%, 73.883057%)" offset="0.125"/><stop stop-opacity="1" stop-color="rgb(12.684631%, 61.543274%, 73.854065%)" offset="0.132812"/><stop stop-opacity="1" stop-color="rgb(12.612915%, 61.769104%, 73.826599%)" offset="0.140625"/><stop stop-opacity="1" stop-color="rgb(12.542725%, 61.994934%, 73.797607%)" offset="0.148438"/><stop stop-opacity="1" stop-color="rgb(12.471008%, 62.220764%, 73.770142%)" offset="0.15625"/><stop stop-opacity="1" stop-color="rgb(12.399292%, 62.446594%, 73.74115%)" offset="0.164062"/><stop stop-opacity="1" stop-color="rgb(12.329102%, 62.672424%, 73.713684%)" offset="0.171875"/><stop stop-opacity="1" stop-color="rgb(12.257385%, 62.896729%, 73.684692%)" offset="0.179688"/><stop stop-opacity="1" stop-color="rgb(12.185669%, 63.122559%, 73.657227%)" offset="0.1875"/><stop stop-opacity="1" stop-color="rgb(12.113953%, 63.348389%, 73.628235%)" offset="0.195312"/><stop stop-opacity="1" stop-color="rgb(12.043762%, 63.574219%, 73.599243%)" offset="0.203125"/><stop stop-opacity="1" stop-color="rgb(11.972046%, 63.800049%, 73.571777%)" offset="0.210938"/><stop stop-opacity="1" stop-color="rgb(11.90033%, 64.025879%, 73.542786%)" offset="0.21875"/><stop stop-opacity="1" stop-color="rgb(11.830139%, 64.251709%, 73.51532%)" offset="0.226563"/><stop stop-opacity="1" stop-color="rgb(11.758423%, 64.477539%, 73.486328%)" offset="0.234375"/><stop stop-opacity="1" stop-color="rgb(11.686707%, 64.703369%, 73.458862%)" offset="0.242187"/><stop stop-opacity="1" stop-color="rgb(11.61499%, 64.929199%, 73.429871%)" offset="0.25"/><stop stop-opacity="1" stop-color="rgb(11.5448%, 65.155029%, 73.400879%)" offset="0.257031"/><stop stop-opacity="1" stop-color="rgb(11.509705%, 65.267944%, 73.387146%)" offset="0.257812"/><stop stop-opacity="1" stop-color="rgb(11.473083%, 65.380859%, 73.373413%)" offset="0.265625"/><stop stop-opacity="1" stop-color="rgb(11.401367%, 65.605164%, 73.344421%)" offset="0.273438"/><stop stop-opacity="1" stop-color="rgb(11.331177%, 65.830994%, 73.316956%)" offset="0.28125"/><stop stop-opacity="1" stop-color="rgb(11.25946%, 66.056824%, 73.287964%)" offset="0.289062"/><stop stop-opacity="1" stop-color="rgb(11.187744%, 66.282654%, 73.260498%)" offset="0.296875"/><stop stop-opacity="1" stop-color="rgb(11.116028%, 66.508484%, 73.231506%)" offset="0.304687"/><stop stop-opacity="1" stop-color="rgb(11.045837%, 66.734314%, 73.204041%)" offset="0.3125"/><stop stop-opacity="1" stop-color="rgb(10.974121%, 66.960144%, 73.175049%)" offset="0.320312"/><stop stop-opacity="1" stop-color="rgb(10.902405%, 67.185974%, 73.146057%)" offset="0.328125"/><stop stop-opacity="1" stop-color="rgb(10.832214%, 67.411804%, 73.118591%)" offset="0.335937"/><stop stop-opacity="1" stop-color="rgb(10.760498%, 67.637634%, 73.0896%)" offset="0.34375"/><stop stop-opacity="1" stop-color="rgb(10.688782%, 67.863464%, 73.062134%)" offset="0.351562"/><stop stop-opacity="1" stop-color="rgb(10.618591%, 68.087769%, 73.033142%)" offset="0.359375"/><stop stop-opacity="1" stop-color="rgb(10.546875%, 68.313599%, 73.005676%)" offset="0.367187"/><stop stop-opacity="1" stop-color="rgb(10.475159%, 68.539429%, 72.976685%)" offset="0.375"/><stop stop-opacity="1" stop-color="rgb(10.403442%, 68.765259%, 72.947693%)" offset="0.382812"/><stop stop-opacity="1" stop-color="rgb(10.333252%, 68.991089%, 72.920227%)" offset="0.390625"/><stop stop-opacity="1" stop-color="rgb(10.261536%, 69.216919%, 72.891235%)" offset="0.398437"/><stop stop-opacity="1" stop-color="rgb(10.189819%, 69.442749%, 72.86377%)" offset="0.40625"/><stop stop-opacity="1" stop-color="rgb(10.119629%, 69.668579%, 72.834778%)" offset="0.414062"/><stop stop-opacity="1" stop-color="rgb(10.047913%, 69.894409%, 72.807312%)" offset="0.421875"/><stop stop-opacity="1" stop-color="rgb(9.976196%, 70.120239%, 72.77832%)" offset="0.429687"/><stop stop-opacity="1" stop-color="rgb(9.90448%, 70.346069%, 72.749329%)" offset="0.4375"/><stop stop-opacity="1" stop-color="rgb(9.83429%, 70.570374%, 72.721863%)" offset="0.445312"/><stop stop-opacity="1" stop-color="rgb(9.762573%, 70.796204%, 72.692871%)" offset="0.453125"/><stop stop-opacity="1" stop-color="rgb(9.690857%, 71.022034%, 72.665405%)" offset="0.460937"/><stop stop-opacity="1" stop-color="rgb(9.620667%, 71.247864%, 72.636414%)" offset="0.46875"/><stop stop-opacity="1" stop-color="rgb(9.54895%, 71.473694%, 72.608948%)" offset="0.476562"/><stop stop-opacity="1" stop-color="rgb(9.477234%, 71.699524%, 72.579956%)" offset="0.484375"/><stop stop-opacity="1" stop-color="rgb(9.405518%, 71.925354%, 72.55249%)" offset="0.492187"/><stop stop-opacity="1" stop-color="rgb(9.335327%, 72.151184%, 72.523499%)" offset="0.5"/><stop stop-opacity="1" stop-color="rgb(9.263611%, 72.377014%, 72.494507%)" offset="0.507812"/><stop stop-opacity="1" stop-color="rgb(9.191895%, 72.602844%, 72.467041%)" offset="0.515625"/><stop stop-opacity="1" stop-color="rgb(9.121704%, 72.828674%, 72.438049%)" offset="0.523437"/><stop stop-opacity="1" stop-color="rgb(9.049988%, 73.052979%, 72.410583%)" offset="0.53125"/><stop stop-opacity="1" stop-color="rgb(8.978271%, 73.278809%, 72.381592%)" offset="0.539062"/><stop stop-opacity="1" stop-color="rgb(8.908081%, 73.504639%, 72.354126%)" offset="0.546875"/><stop stop-opacity="1" stop-color="rgb(8.836365%, 73.730469%, 72.325134%)" offset="0.554687"/><stop stop-opacity="1" stop-color="rgb(8.764648%, 73.956299%, 72.296143%)" offset="0.5625"/><stop stop-opacity="1" stop-color="rgb(8.692932%, 74.182129%, 72.268677%)" offset="0.570312"/><stop stop-opacity="1" stop-color="rgb(8.622742%, 74.407959%, 72.239685%)" offset="0.578125"/><stop stop-opacity="1" stop-color="rgb(8.551025%, 74.633789%, 72.212219%)" offset="0.585937"/><stop stop-opacity="1" stop-color="rgb(8.479309%, 74.859619%, 72.183228%)" offset="0.59375"/><stop stop-opacity="1" stop-color="rgb(8.409119%, 75.085449%, 72.155762%)" offset="0.601562"/><stop stop-opacity="1" stop-color="rgb(8.337402%, 75.311279%, 72.12677%)" offset="0.609375"/><stop stop-opacity="1" stop-color="rgb(8.265686%, 75.537109%, 72.099304%)" offset="0.617187"/><stop stop-opacity="1" stop-color="rgb(8.19397%, 75.761414%, 72.070312%)" offset="0.625"/><stop stop-opacity="1" stop-color="rgb(8.123779%, 75.987244%, 72.041321%)" offset="0.632812"/><stop stop-opacity="1" stop-color="rgb(8.052063%, 76.213074%, 72.013855%)" offset="0.640625"/><stop stop-opacity="1" stop-color="rgb(7.980347%, 76.438904%, 71.984863%)" offset="0.648438"/><stop stop-opacity="1" stop-color="rgb(7.910156%, 76.664734%, 71.957397%)" offset="0.65625"/><stop stop-opacity="1" stop-color="rgb(7.83844%, 76.890564%, 71.928406%)" offset="0.664062"/><stop stop-opacity="1" stop-color="rgb(7.766724%, 77.116394%, 71.90094%)" offset="0.671875"/><stop stop-opacity="1" stop-color="rgb(7.695007%, 77.342224%, 71.871948%)" offset="0.679688"/><stop stop-opacity="1" stop-color="rgb(7.624817%, 77.568054%, 71.842957%)" offset="0.6875"/><stop stop-opacity="1" stop-color="rgb(7.553101%, 77.793884%, 71.815491%)" offset="0.695312"/><stop stop-opacity="1" stop-color="rgb(7.481384%, 78.019714%, 71.786499%)" offset="0.703125"/><stop stop-opacity="1" stop-color="rgb(7.411194%, 78.244019%, 71.759033%)" offset="0.710937"/><stop stop-opacity="1" stop-color="rgb(7.339478%, 78.469849%, 71.730042%)" offset="0.71875"/><stop stop-opacity="1" stop-color="rgb(7.267761%, 78.695679%, 71.702576%)" offset="0.726562"/><stop stop-opacity="1" stop-color="rgb(7.196045%, 78.921509%, 71.673584%)" offset="0.734375"/><stop stop-opacity="1" stop-color="rgb(7.125854%, 79.147339%, 71.646118%)" offset="0.742187"/><stop stop-opacity="1" stop-color="rgb(7.054138%, 79.373169%, 71.617126%)" offset="0.742969"/><stop stop-opacity="1" stop-color="rgb(7.019043%, 79.486084%, 71.603394%)" offset="0.75"/><stop stop-opacity="1" stop-color="rgb(6.982422%, 79.598999%, 71.588135%)" offset="0.757812"/><stop stop-opacity="1" stop-color="rgb(6.912231%, 79.824829%, 71.560669%)" offset="0.765625"/><stop stop-opacity="1" stop-color="rgb(6.840515%, 80.050659%, 71.531677%)" offset="0.773437"/><stop stop-opacity="1" stop-color="rgb(6.768799%, 80.276489%, 71.504211%)" offset="0.78125"/><stop stop-opacity="1" stop-color="rgb(6.698608%, 80.502319%, 71.47522%)" offset="0.789062"/><stop stop-opacity="1" stop-color="rgb(6.626892%, 80.726624%, 71.447754%)" offset="0.796875"/><stop stop-opacity="1" stop-color="rgb(6.555176%, 80.952454%, 71.418762%)" offset="0.804687"/><stop stop-opacity="1" stop-color="rgb(6.483459%, 81.178284%, 71.389771%)" offset="0.8125"/><stop stop-opacity="1" stop-color="rgb(6.413269%, 81.404114%, 71.362305%)" offset="0.820312"/><stop stop-opacity="1" stop-color="rgb(6.341553%, 81.629944%, 71.333313%)" offset="0.828125"/><stop stop-opacity="1" stop-color="rgb(6.269836%, 81.855774%, 71.305847%)" offset="0.835937"/><stop stop-opacity="1" stop-color="rgb(6.199646%, 82.081604%, 71.276855%)" offset="0.84375"/><stop stop-opacity="1" stop-color="rgb(6.12793%, 82.307434%, 71.24939%)" offset="0.851562"/><stop stop-opacity="1" stop-color="rgb(6.056213%, 82.533264%, 71.220398%)" offset="0.859375"/><stop stop-opacity="1" stop-color="rgb(5.984497%, 82.759094%, 71.191406%)" offset="0.867188"/><stop stop-opacity="1" stop-color="rgb(5.914307%, 82.984924%, 71.16394%)" offset="0.875"/><stop stop-opacity="1" stop-color="rgb(5.84259%, 83.210754%, 71.134949%)" offset="0.882812"/><stop stop-opacity="1" stop-color="rgb(5.770874%, 83.435059%, 71.107483%)" offset="0.890625"/><stop stop-opacity="1" stop-color="rgb(5.700684%, 83.660889%, 71.078491%)" offset="0.898437"/><stop stop-opacity="1" stop-color="rgb(5.628967%, 83.886719%, 71.051025%)" offset="0.90625"/><stop stop-opacity="1" stop-color="rgb(5.54657%, 84.14917%, 71.017456%)" offset="0.9375"/><stop stop-opacity="1" stop-color="rgb(5.499268%, 84.298706%, 70.999146%)" offset="1"/></linearGradient></defs><g clip-path="url(#2f938f62a5)"><g clip-path="url(#1889fd64db)"><path fill="url(#39733b9616)" d="M 0.492188 14.007812 L 0.492188 25.851562 L 20.476562 25.851562 L 20.476562 14.007812 Z M 0.492188 14.007812 " fill-rule="nonzero"/></g></g><g fill="#000000" fill-opacity="1"><g transform="translate(22.784486, 22.194615)"><g><path d="M 4.875 -1.6875 L 5.328125 -0.375 C 5.140625 -0.21875 4.898438 -0.09375 4.609375 0 C 4.316406 0.09375 3.988281 0.140625 3.625 0.140625 C 2.863281 0.140625 2.28125 -0.0664062 1.875 -0.484375 C 1.476562 -0.898438 1.28125 -1.503906 1.28125 -2.296875 L 1.28125 -5.65625 L 0.21875 -5.65625 L 0.21875 -7.0625 L 1.28125 -7.0625 L 1.28125 -8.4375 L 3.0625 -8.734375 L 3.0625 -7.0625 L 5.0625 -7.0625 L 5.0625 -5.65625 L 3.0625 -5.65625 L 3.0625 -2.4375 C 3.0625 -2.082031 3.132812 -1.820312 3.28125 -1.65625 C 3.425781 -1.5 3.632812 -1.421875 3.90625 -1.421875 C 4.226562 -1.421875 4.503906 -1.507812 4.734375 -1.6875 Z M 4.875 -1.6875 "/></g></g></g><g fill="#000000" fill-opacity="1"><g transform="translate(28.271263, 22.194615)"><g><path d="M 2.75 0.140625 C 2.300781 0.140625 1.910156 0.0546875 1.578125 -0.109375 C 1.242188 -0.273438 0.984375 -0.519531 0.796875 -0.84375 C 0.617188 -1.164062 0.53125 -1.554688 0.53125 -2.015625 C 0.53125 -2.429688 0.617188 -2.78125 0.796875 -3.0625 C 0.984375 -3.34375 1.265625 -3.570312 1.640625 -3.75 C 2.015625 -3.9375 2.503906 -4.082031 3.109375 -4.1875 C 3.535156 -4.25 3.859375 -4.320312 4.078125 -4.40625 C 4.296875 -4.488281 4.441406 -4.578125 4.515625 -4.671875 C 4.597656 -4.773438 4.640625 -4.90625 4.640625 -5.0625 C 4.640625 -5.289062 4.554688 -5.460938 4.390625 -5.578125 C 4.234375 -5.703125 3.972656 -5.765625 3.609375 -5.765625 C 3.210938 -5.765625 2.835938 -5.675781 2.484375 -5.5 C 2.128906 -5.332031 1.820312 -5.101562 1.5625 -4.8125 L 1.4375 -4.8125 L 0.703125 -5.9375 C 1.054688 -6.332031 1.488281 -6.640625 2 -6.859375 C 2.519531 -7.078125 3.085938 -7.1875 3.703125 -7.1875 C 4.640625 -7.1875 5.316406 -6.988281 5.734375 -6.59375 C 6.148438 -6.195312 6.359375 -5.632812 6.359375 -4.90625 L 6.359375 -1.84375 C 6.359375 -1.53125 6.492188 -1.375 6.765625 -1.375 C 6.878906 -1.375 6.988281 -1.390625 7.09375 -1.421875 L 7.171875 -1.40625 L 7.296875 -0.171875 C 7.203125 -0.109375 7.066406 -0.0546875 6.890625 -0.015625 C 6.710938 0.0234375 6.519531 0.046875 6.3125 0.046875 C 5.894531 0.046875 5.566406 -0.03125 5.328125 -0.1875 C 5.085938 -0.351562 4.914062 -0.609375 4.8125 -0.953125 L 4.6875 -0.96875 C 4.34375 -0.226562 3.695312 0.140625 2.75 0.140625 Z M 3.3125 -1.1875 C 3.726562 -1.1875 4.054688 -1.320312 4.296875 -1.59375 C 4.546875 -1.875 4.671875 -2.257812 4.671875 -2.75 L 4.671875 -3.46875 L 4.546875 -3.5 C 4.441406 -3.40625 4.300781 -3.328125 4.125 -3.265625 C 3.945312 -3.210938 3.695312 -3.160156 3.375 -3.109375 C 2.988281 -3.046875 2.710938 -2.9375 2.546875 -2.78125 C 2.378906 -2.625 2.296875 -2.40625 2.296875 -2.125 C 2.296875 -1.820312 2.382812 -1.585938 2.5625 -1.421875 C 2.738281 -1.265625 2.988281 -1.1875 3.3125 -1.1875 Z M 3.3125 -1.1875 "/></g></g></g><g fill="#000000" fill-opacity="1"><g transform="translate(35.717139, 22.194615)"><g><path d="M 1.90625 -7.90625 C 1.582031 -7.90625 1.316406 -8 1.109375 -8.1875 C 0.910156 -8.382812 0.8125 -8.640625 0.8125 -8.953125 C 0.8125 -9.253906 0.910156 -9.5 1.109375 -9.6875 C 1.316406 -9.882812 1.582031 -9.984375 1.90625 -9.984375 C 2.113281 -9.984375 2.300781 -9.9375 2.46875 -9.84375 C 2.632812 -9.757812 2.765625 -9.640625 2.859375 -9.484375 C 2.953125 -9.328125 3 -9.148438 3 -8.953125 C 3 -8.742188 2.953125 -8.5625 2.859375 -8.40625 C 2.765625 -8.25 2.632812 -8.125 2.46875 -8.03125 C 2.300781 -7.945312 2.113281 -7.90625 1.90625 -7.90625 Z M 1.015625 0 L 1.015625 -7.0625 L 2.796875 -7.0625 L 2.796875 0 Z M 1.015625 0 "/></g></g></g><g fill="#000000" fill-opacity="1"><g transform="translate(39.520096, 22.194615)"><g><path d="M 2.9375 0.140625 C 2.300781 0.140625 1.8125 -0.03125 1.46875 -0.375 C 1.132812 -0.71875 0.96875 -1.242188 0.96875 -1.953125 L 0.96875 -9.890625 L 2.75 -9.890625 L 2.75 -2.015625 C 2.75 -1.585938 2.925781 -1.375 3.28125 -1.375 C 3.382812 -1.375 3.492188 -1.390625 3.609375 -1.421875 L 3.703125 -1.390625 L 3.859375 -0.03125 C 3.765625 0.0195312 3.632812 0.0625 3.46875 0.09375 C 3.300781 0.125 3.125 0.140625 2.9375 0.140625 Z M 2.9375 0.140625 "/></g></g></g><g fill="#000000" fill-opacity="1"><g transform="translate(43.579145, 22.194615)"><g><path d="M 3.796875 0 L 1.9375 0 L 0.25 -7.0625 L 1.90625 -7.0625 L 2.9375 -2.28125 L 3.078125 -2.28125 L 4.421875 -7.0625 L 5.953125 -7.0625 L 7.34375 -2.28125 L 7.46875 -2.28125 L 8.46875 -7.0625 L 10.078125 -7.0625 L 8.421875 0 L 6.5625 0 L 5.21875 -4.8125 L 5.078125 -4.8125 Z M 3.796875 0 "/></g></g></g><g fill="#000000" fill-opacity="1"><g transform="translate(53.90605, 22.194615)"><g><path d="M 1.90625 -7.90625 C 1.582031 -7.90625 1.316406 -8 1.109375 -8.1875 C 0.910156 -8.382812 0.8125 -8.640625 0.8125 -8.953125 C 0.8125 -9.253906 0.910156 -9.5 1.109375 -9.6875 C 1.316406 -9.882812 1.582031 -9.984375 1.90625 -9.984375 C 2.113281 -9.984375 2.300781 -9.9375 2.46875 -9.84375 C 2.632812 -9.757812 2.765625 -9.640625 2.859375 -9.484375 C 2.953125 -9.328125 3 -9.148438 3 -8.953125 C 3 -8.742188 2.953125 -8.5625 2.859375 -8.40625 C 2.765625 -8.25 2.632812 -8.125 2.46875 -8.03125 C 2.300781 -7.945312 2.113281 -7.90625 1.90625 -7.90625 Z M 1.015625 0 L 1.015625 -7.0625 L 2.796875 -7.0625 L 2.796875 0 Z M 1.015625 0 "/></g></g></g><g fill="#000000" fill-opacity="1"><g transform="translate(57.709007, 22.194615)"><g><path d="M 1.015625 0 L 1.015625 -7.0625 L 2.71875 -7.0625 L 2.71875 -6.015625 L 2.859375 -5.984375 C 3.296875 -6.785156 4.007812 -7.1875 5 -7.1875 C 5.8125 -7.1875 6.40625 -6.960938 6.78125 -6.515625 C 7.164062 -6.078125 7.359375 -5.4375 7.359375 -4.59375 L 7.359375 0 L 5.59375 0 L 5.59375 -4.375 C 5.59375 -4.84375 5.5 -5.179688 5.3125 -5.390625 C 5.125 -5.597656 4.820312 -5.703125 4.40625 -5.703125 C 3.894531 -5.703125 3.5 -5.535156 3.21875 -5.203125 C 2.9375 -4.878906 2.796875 -4.363281 2.796875 -3.65625 L 2.796875 0 Z M 1.015625 0 "/></g></g></g><g fill="#000000" fill-opacity="1"><g transform="translate(65.98076, 22.194615)"><g><path d="M 3.484375 0.140625 C 2.929688 0.140625 2.4375 0.00390625 2 -0.265625 C 1.570312 -0.535156 1.238281 -0.945312 1 -1.5 C 0.757812 -2.050781 0.640625 -2.726562 0.640625 -3.53125 C 0.640625 -4.332031 0.757812 -5.003906 1 -5.546875 C 1.25 -6.097656 1.59375 -6.507812 2.03125 -6.78125 C 2.476562 -7.050781 2.992188 -7.1875 3.578125 -7.1875 C 4.015625 -7.1875 4.394531 -7.109375 4.71875 -6.953125 C 5.039062 -6.804688 5.3125 -6.578125 5.53125 -6.265625 L 5.671875 -6.296875 L 5.671875 -9.890625 L 7.4375 -9.890625 L 7.4375 0 L 5.671875 0 L 5.671875 -0.921875 L 5.53125 -0.9375 C 5.34375 -0.601562 5.078125 -0.335938 4.734375 -0.140625 C 4.390625 0.046875 3.972656 0.140625 3.484375 0.140625 Z M 4.0625 -1.375 C 4.5625 -1.375 4.957031 -1.550781 5.25 -1.90625 C 5.539062 -2.257812 5.6875 -2.800781 5.6875 -3.53125 C 5.6875 -4.25 5.539062 -4.785156 5.25 -5.140625 C 4.957031 -5.503906 4.5625 -5.6875 4.0625 -5.6875 C 3.539062 -5.6875 3.140625 -5.507812 2.859375 -5.15625 C 2.585938 -4.8125 2.453125 -4.269531 2.453125 -3.53125 C 2.453125 -2.78125 2.585938 -2.234375 2.859375 -1.890625 C 3.140625 -1.546875 3.539062 -1.375 4.0625 -1.375 Z M 4.0625 -1.375 "/></g></g></g></svg>